
<svg version="1.1" xmlns="http://www.w3.org/2000/svg" width="53" height="32" viewBox="0 0 53 32">
<title>arrow-down</title>
<path d="M29.368 29.603c-0.582 0.583-1.371 0.91-2.195 0.911h-1.574c-0.822-0.010-1.608-0.336-2.195-0.911l-21.244-21.286c-0.392-0.389-0.612-0.918-0.612-1.47s0.22-1.081 0.612-1.47l2.94-2.94c0.382-0.39 0.904-0.609 1.449-0.609s1.068 0.22 1.449 0.609l18.387 18.428 18.387-18.428c0.389-0.392 0.918-0.612 1.47-0.612s1.081 0.22 1.47 0.612l2.899 2.94c0.392 0.389 0.612 0.918 0.612 1.47s-0.221 1.081-0.612 1.47l-21.244 21.286z"></path>
</svg>
