
<svg version="1.1" xmlns="http://www.w3.org/2000/svg" width="32" height="32" viewBox="0 0 32 32">
<title>calendar</title>
<path d="M13.091 2.909c-0.803 0-1.455 0.651-1.455 1.455h-7.273c-0.803 0-1.455 0.651-1.455 1.455v21.818c0 0.803 0.651 1.455 1.455 1.455h23.273c0.803 0 1.455-0.651 1.455-1.455v-21.818c0-0.803-0.651-1.455-1.455-1.455h-7.273c0-0.803-0.651-1.455-1.455-1.455s-1.455 0.651-1.455 1.455h-2.909c0-0.803-0.651-1.455-1.455-1.455zM17.455 7.273c0 0.803 0.651 1.455 1.455 1.455s1.455-0.651 1.455-1.455h5.818v18.909h-20.364v-18.909h5.818c0 0.803 0.651 1.455 1.455 1.455s1.455-0.651 1.455-1.455h2.909zM11.636 20.364c0-0.803-0.651-1.455-1.455-1.455s-1.455 0.651-1.455 1.455c0 0.803 0.651 1.455 1.455 1.455s1.455-0.651 1.455-1.455zM16 21.818c-0.803 0-1.455-0.651-1.455-1.455s0.651-1.455 1.455-1.455c0.803 0 1.455 0.651 1.455 1.455s-0.651 1.455-1.455 1.455zM23.273 20.364c0-0.803-0.651-1.455-1.455-1.455s-1.455 0.651-1.455 1.455c0 0.803 0.651 1.455 1.455 1.455s1.455-0.651 1.455-1.455zM10.182 16c-0.803 0-1.455-0.651-1.455-1.455s0.651-1.455 1.455-1.455c0.803 0 1.455 0.651 1.455 1.455s-0.651 1.455-1.455 1.455zM17.455 14.545c0-0.803-0.651-1.455-1.455-1.455s-1.455 0.651-1.455 1.455c0 0.803 0.651 1.455 1.455 1.455s1.455-0.651 1.455-1.455zM21.818 16c-0.803 0-1.455-0.651-1.455-1.455s0.651-1.455 1.455-1.455c0.803 0 1.455 0.651 1.455 1.455s-0.651 1.455-1.455 1.455z"></path>
</svg>
