
<svg version="1.1" xmlns="http://www.w3.org/2000/svg" width="32" height="32" viewBox="0 0 32 32">
<title>call</title>
<path d="M4.51 7.463c-0.396-0.803 0.047-1.754 0.909-1.991l3.939-1.082c0.329-0.090 0.676 0.061 0.835 0.362l2.7 5.107c0.167 0.316 0.080 0.707-0.205 0.921l-2.317 1.741c2.617 3.818 5.206 6.342 8.727 8.727l1.708-2.327c0.217-0.294 0.617-0.383 0.937-0.207l5.377 2.951c0.298 0.163 0.444 0.512 0.348 0.839l-1.103 3.796c-0.256 0.886-1.263 1.313-2.087 0.899-2.359-1.185-4.218-2.035-6.743-3.887-2.604-1.834-6.874-5.961-9.181-9.181-1.501-2.096-2.988-4.938-3.843-6.669z"></path>
</svg>
