
<svg version="1.1" xmlns="http://www.w3.org/2000/svg" width="32" height="32" viewBox="0 0 32 32">
<title>computer</title>
<path d="M5.818 7.273h20.364v11.636h-20.364v-11.636zM4.364 4.364c-0.803 0-1.455 0.651-1.455 1.455v14.545c0 0.803 0.651 1.455 1.455 1.455h10.182v2.909h-2.909c-0.803 0-1.455 0.651-1.455 1.455s0.651 1.455 1.455 1.455h8.727c0.803 0 1.455-0.651 1.455-1.455s-0.651-1.455-1.455-1.455h-2.909v-2.909h10.182c0.803 0 1.455-0.651 1.455-1.455v-14.545c0-0.803-0.651-1.455-1.455-1.455h-23.273z"></path>
</svg>
