
<svg version="1.1" xmlns="http://www.w3.org/2000/svg" width="32" height="32" viewBox="0 0 32 32">
<title>headphones</title>
<path d="M16 2.909c-7.23 0-13.091 5.831-13.091 13.023v8.012c0 0.027 0 0.054 0 0.082 0 2.797 1.954 5.065 4.364 5.065s4.364-2.268 4.364-5.065c0-2.797-1.954-5.065-4.364-5.065-0.51 0-1 0.101-1.455 0.288v-3.317c0-5.594 4.559-10.129 10.182-10.129s10.182 4.535 10.182 10.129v3.317c-0.455-0.187-0.945-0.288-1.455-0.288-2.41 0-4.364 2.268-4.364 5.065s1.954 5.065 4.364 5.065c2.41 0 4.364-2.268 4.364-5.065 0-0.027 0-0.055 0-0.082v-8.012c0-7.193-5.861-13.023-13.091-13.023zM8.149 25.724c0.32-0.372 0.578-0.963 0.578-1.698s-0.257-1.326-0.578-1.698c-0.315-0.366-0.634-0.473-0.877-0.473s-0.562 0.107-0.877 0.473c-0.32 0.372-0.578 0.963-0.578 1.698s0.257 1.326 0.578 1.698c0.315 0.366 0.634 0.473 0.877 0.473s0.562-0.107 0.877-0.473zM25.604 25.724c0.32-0.372 0.578-0.963 0.578-1.698s-0.257-1.326-0.578-1.698c-0.315-0.366-0.634-0.473-0.877-0.473s-0.562 0.107-0.877 0.473c-0.32 0.372-0.578 0.963-0.578 1.698s0.257 1.326 0.578 1.698c0.315 0.366 0.634 0.473 0.877 0.473s0.562-0.107 0.877-0.473z"></path>
</svg>
