
<svg version="1.1" xmlns="http://www.w3.org/2000/svg" width="32" height="32" viewBox="0 0 32 32">
<title>lock</title>
<path d="M16 2.909c4.017 0 7.273 3.256 7.273 7.273v0 2.909h2.909c0.803 0 1.455 0.651 1.455 1.455v0 13.091c0 0.803-0.651 1.455-1.455 1.455v0h-20.364c-0.803 0-1.455-0.651-1.455-1.455v0-13.091c0-0.803 0.651-1.455 1.455-1.455v0h2.909v-2.909c0-4.017 3.256-7.273 7.273-7.273zM16 5.818c-2.41 0-4.364 1.954-4.364 4.364v2.909h8.727v-2.909c0-2.41-1.954-4.364-4.364-4.364zM7.273 16v10.182h17.455v-10.182h-17.455zM17.455 18.909c0-0.803-0.651-1.455-1.455-1.455s-1.455 0.651-1.455 1.455v1.455c0 0.803 0.651 1.455 1.455 1.455s1.455-0.651 1.455-1.455v-1.455z"></path>
</svg>
