
<svg version="1.1" xmlns="http://www.w3.org/2000/svg" width="26" height="32" viewBox="0 0 26 32">
<title>pause</title>
<path d="M7.897 2.357v27.285c-0.014 1.071-0.878 1.935-1.949 1.949h-3.898c-1.071-0.014-1.935-0.878-1.949-1.949v-27.285c0.014-1.071 0.878-1.935 1.949-1.949h3.898c1.071 0.014 1.935 0.878 1.949 1.949zM24.138 0.408h-3.898c-1.071 0.014-1.935 0.878-1.949 1.949v27.285c0.014 1.071 0.878 1.935 1.949 1.949h3.898c1.071-0.014 1.935-0.878 1.949-1.949v-27.285c-0.014-1.071-0.878-1.935-1.949-1.949z"></path>
</svg>
