
<svg version="1.1" xmlns="http://www.w3.org/2000/svg" width="36" height="32" viewBox="0 0 36 32">
<title>repeat</title>
<path d="M31.492 16.414v7.377c0 1.811-1.716 3.278-3.834 3.278h-19.169v3.278c0.002 0.331-0.228 0.63-0.585 0.76s-0.768 0.062-1.045-0.169l-5.751-4.918c-0.368-0.324-0.368-0.84 0-1.164l5.751-4.918c0.274-0.23 0.681-0.297 1.036-0.173s0.588 0.418 0.593 0.746v3.278h19.169v-7.377c0-0.453 0.429-0.82 0.958-0.82h1.917c0.529 0 0.958 0.367 0.958 0.82zM35.057 5.169l-5.751-4.918c-0.274-0.244-0.696-0.318-1.061-0.188s-0.598 0.44-0.588 0.778v3.278h-19.169c-2.117 0-3.834 1.468-3.834 3.278v7.377c0 0.453 0.429 0.82 0.958 0.82h1.917c0.529 0 0.958-0.367 0.958-0.82v-7.377h19.169v3.278c-0.002 0.331 0.228 0.63 0.585 0.76s0.768 0.062 1.045-0.169l5.751-4.918c0.386-0.322 0.394-0.849 0.019-1.18z"></path>
</svg>
