
<svg version="1.1" xmlns="http://www.w3.org/2000/svg" width="32" height="32" viewBox="0 0 32 32">
<title>Settings</title>
<path d="M17.61 2.909c2.039 0 3.443 1.697 3.443 3.475v0 0.049c0.343 0.18 0.679 0.375 1.002 0.585v0l0.259-0.143c1.341-0.733 3.535-0.652 4.66 1.197v0l1.61 2.644c1.206 1.983 0.054 4.031-1.335 4.791v0l-0.285 0.156c0.004 0.113 0.007 0.227 0.009 0.336-0.001 0.109-0.004 0.223-0.009 0.336v0l0.285 0.156c1.389 0.761 2.541 2.809 1.335 4.791v0l-1.61 2.644c-1.126 1.849-3.319 1.932-4.66 1.197v0l-0.259-0.143c-0.323 0.209-0.659 0.404-1.002 0.585v0 0.049c0 1.777-1.404 3.475-3.443 3.475v0h-3.22c-2.039 0-3.443-1.697-3.443-3.475v0-0.049c-0.343-0.18-0.679-0.375-1.002-0.585v0l-0.259 0.143c-1.341 0.735-3.535 0.652-4.66-1.197v0l-1.61-2.644c-1.206-1.983-0.054-4.031 1.335-4.791v0l0.285-0.156c-0.004-0.113-0.007-0.227-0.009-0.336 0.001-0.109 0.004-0.223 0.009-0.336v0l-0.285-0.156c-1.389-0.761-2.541-2.809-1.335-4.791v0l1.61-2.644c1.126-1.849 3.319-1.93 4.66-1.197v0l0.259 0.143c0.323-0.209 0.659-0.404 1.002-0.585v0-0.049c0-1.777 1.404-3.475 3.443-3.475v0zM17.61 5.818h-3.22c-0.297 0-0.537 0.253-0.537 0.566v1.981c-1.404 0.378-2.653 1.12-3.639 2.116l-1.921-1.053c-0.285-0.156-0.637-0.086-0.785 0.159l-1.61 2.644c-0.148 0.244-0.038 0.567 0.247 0.724l2.031 1.111c-0.157 0.618-0.241 1.267-0.241 1.933s0.084 1.315 0.241 1.933l-2.031 1.111c-0.285 0.157-0.396 0.48-0.247 0.724l1.61 2.644c0.148 0.244 0.5 0.314 0.785 0.159l1.921-1.053c0.986 0.996 2.236 1.738 3.639 2.118v1.98c0 0.313 0.24 0.566 0.537 0.566h3.22c0.297 0 0.537-0.253 0.537-0.566v-1.98c1.404-0.38 2.653-1.121 3.639-2.118l1.921 1.053c0.285 0.156 0.637 0.086 0.785-0.159l1.61-2.644c0.148-0.244 0.038-0.567-0.247-0.724l-2.031-1.111c0.157-0.618 0.241-1.267 0.241-1.933s-0.084-1.315-0.241-1.933l2.031-1.111c0.285-0.157 0.396-0.48 0.247-0.724l-1.61-2.644c-0.148-0.244-0.5-0.314-0.785-0.159l-1.921 1.053c-0.986-0.996-2.236-1.738-3.639-2.116v-1.981c0-0.313-0.24-0.566-0.537-0.566zM15.994 11.636c-2.407 0-4.358 1.953-4.358 4.364s1.951 4.364 4.358 4.364c2.407 0 4.358-1.953 4.358-4.364s-1.951-4.364-4.358-4.364zM17.447 16c0 0.803-0.65 1.455-1.453 1.455s-1.453-0.652-1.453-1.455c0-0.803 0.65-1.455 1.453-1.455s1.453 0.652 1.453 1.455z"></path>
</svg>
