
<svg version="1.1" xmlns="http://www.w3.org/2000/svg" width="32" height="32" viewBox="0 0 32 32">
<title>sound</title>
<path d="M10.182 5.818c0.803 0 1.455 0.651 1.455 1.455v17.455c0 0.803-0.651 1.455-1.455 1.455s-1.455-0.651-1.455-1.455v-17.455c0-0.803 0.651-1.455 1.455-1.455zM4.364 10.182c0.803 0 1.455 0.651 1.455 1.455v8.727c0 0.803-0.651 1.455-1.455 1.455s-1.455-0.651-1.455-1.455v-8.727c0-0.803 0.651-1.455 1.455-1.455zM16 10.182c0.803 0 1.455 0.651 1.455 1.455v8.727c0 0.803-0.651 1.455-1.455 1.455s-1.455-0.651-1.455-1.455v-8.727c0-0.803 0.651-1.455 1.455-1.455zM29.091 11.636c0-0.803-0.651-1.455-1.455-1.455s-1.455 0.651-1.455 1.455v8.727c0 0.803 0.651 1.455 1.455 1.455s1.455-0.651 1.455-1.455v-8.727zM23.273 7.273c0-0.803-0.651-1.455-1.455-1.455s-1.455 0.651-1.455 1.455v17.455c0 0.803 0.651 1.455 1.455 1.455s1.455-0.651 1.455-1.455v-17.455z"></path>
</svg>
