
<svg version="1.1" xmlns="http://www.w3.org/2000/svg" width="61" height="32" viewBox="0 0 61 32">
<title>wallet-connect</title>
<path fill="#3b99fc" d="M12.418 6.497c9.866-8.227 25.863-8.227 35.729 0l1.187 0.99c0.493 0.411 0.493 1.078 0 1.49l-4.062 3.387c-0.247 0.206-0.647 0.206-0.893 0l-1.634-1.363c-6.883-5.739-18.043-5.739-24.926 0l-1.75 1.459c-0.247 0.206-0.647 0.206-0.893 0l-4.062-3.387c-0.493-0.411-0.493-1.078 0-1.49l1.303-1.087zM56.549 13.502l3.615 3.015c0.493 0.411 0.493 1.078 0 1.49l-16.301 13.593c-0.493 0.411-1.293 0.411-1.786 0 0 0 0 0 0 0l-11.57-9.647c-0.123-0.103-0.323-0.103-0.447 0 0 0 0 0 0 0l-11.569 9.647c-0.493 0.411-1.293 0.411-1.786 0 0 0 0 0 0 0l-16.302-13.593c-0.493-0.411-0.493-1.078 0-1.49l3.615-3.015c0.493-0.411 1.293-0.411 1.786 0l11.57 9.647c0.123 0.103 0.323 0.103 0.447 0 0 0 0 0 0 0l11.569-9.647c0.493-0.411 1.293-0.411 1.786-0 0 0 0 0 0 0l11.57 9.647c0.123 0.103 0.323 0.103 0.447 0l11.569-9.647c0.493-0.411 1.293-0.411 1.786 0z"></path>
</svg>
