
<svg version="1.1" xmlns="http://www.w3.org/2000/svg" width="25" height="32" viewBox="0 0 25 32">
<title>wave-file</title>
<path d="M13.763 16.213h-0.029c-0.072 0.464-0.177 1.184-0.249 1.586l-0.257 1.439h0.989l-0.225-1.45c-0.072-0.421-0.166-1.112-0.228-1.575zM15.419 0.153h-15.206v31.553h24.693v-22.338l-9.488-9.214zM10.202 21.872h-1.388l-0.41-2.272c-0.115-0.638-0.217-1.431-0.311-2.275h-0.019c-0.123 0.836-0.238 1.605-0.38 2.286l-0.464 2.261h-1.337l-1.184-6.932h1.399l0.34 2.768c0.094 0.79 0.155 1.584 0.236 2.428h0.032c0.091-0.855 0.247-1.608 0.391-2.441l0.493-2.757h1.091l0.464 2.738c0.123 0.782 0.246 1.554 0.33 2.46h0.021c0.091-0.906 0.174-1.648 0.265-2.449l0.34-2.749h1.318l-1.227 6.934zM14.636 21.872l-0.297-1.584h-1.243l-0.311 1.584h-1.305l1.5-6.934h1.616l1.348 6.934h-1.308zM18.969 21.872h-1.511l-1.554-6.934h1.492l0.493 2.996c0.123 0.739 0.268 1.594 0.362 2.406h0.019c0.094-0.823 0.206-1.656 0.33-2.438l0.474-2.963h1.482l-1.586 6.934zM15.304 9.756v-8.231l8.231 8.231h-8.231z"></path>
</svg>
