<svg width="371" height="89" xmlns="http://www.w3.org/2000/svg" xmlns:xlink="http://www.w3.org/1999/xlink">
    <defs>
        <path id="a" d="M0 0h87.188v87.188H0z"/>
        <path id="c" d="M0 0h87.188v87.188H0z"/>
        <path d="M8.055 41.239V23.685h18.997V41.24h8.055V0h-8.055v16.471H8.055V0H0v41.239h8.055zm47.25.841c3.547 0 7.455-1.623 9.74-4.088v3.247h7.213V11.18h-7.214v3.247c-2.284-2.465-6.192-4.088-9.739-4.088-9.377 0-15.63 6.372-15.63 15.87s6.253 15.87 15.63 15.87zm.722-6.372c-5.47 0-9.138-3.787-9.138-9.498 0-5.71 3.667-9.498 9.138-9.498 5.41 0 9.017 3.787 9.017 9.498 0 5.71-3.607 9.498-9.017 9.498zm33.905 6.372c8.355 0 13.946-3.967 13.946-9.919 0-5.47-3.186-7.754-13.225-9.858-4.268-.962-5.65-1.744-5.65-3.006 0-1.744 1.983-2.946 4.929-2.946 2.645 0 5.05 1.383 5.95 3.427l6.613-1.623c-1.743-4.69-6.792-7.815-12.563-7.815-7.274 0-12.144 3.727-12.144 9.317 0 4.99 2.766 6.974 11.482 8.958 5.59 1.082 7.394 2.104 7.394 3.546 0 2.345-2.705 3.908-6.732 3.908-4.028 0-6.914-2.044-7.154-5.05h-6.793c.24 6.613 5.831 11.061 13.947 11.061zm24.887-.841V23.385c0-4.028 2.946-6.673 7.334-6.673s7.334 2.645 7.334 6.673v17.854h7.214V22.543c0-7.334-5.47-12.203-13.706-12.203-2.946 0-6.192 1.202-8.176 3.066V0h-7.214v41.239h7.214zm39.916.841c1.984 0 4.028-.36 5.11-.841v-5.17h-5.23c-1.563 0-2.645-1.022-2.645-2.525V17.193h7.574V11.18h-7.574V0h-7.214v11.181h-4.81v6.012h4.81v16.351c0 5.11 3.968 8.536 9.98 8.536zm23.264 0c2.946 0 6.192-1.202 8.176-3.066v2.225h7.214V11.18h-7.214v17.854c0 4.028-2.946 6.673-7.334 6.673s-7.334-2.645-7.334-6.673V11.181h-7.214v18.696c0 7.334 5.47 12.203 13.706 12.203zm28.134-.841V23.385c0-4.028 2.946-6.673 7.334-6.673s7.334 2.645 7.334 6.673v17.854h7.214V22.543c0-7.334-5.47-12.203-13.706-12.203-2.946 0-6.192 1.202-8.176 3.066V11.18h-7.214V41.24h7.214zm41.9.841c7.334 0 13.586-4.448 15.57-11.06h-7.334c-1.383 3.005-4.69 5.049-8.236 5.049-4.689 0-8.296-3.126-8.957-7.875h24.647l.601-.601V26.21c0-9.498-6.492-15.87-16.291-15.87s-16.291 6.372-16.291 15.87 6.492 15.87 16.291 15.87zm8.476-19.898h-16.952c1.383-3.727 4.448-5.83 8.476-5.83 4.028 0 7.094 2.103 8.476 5.83z" id="d"/>
    </defs>
    <g fill="none" fill-rule="evenodd">
        <g transform="translate(.324 .906)">
            <mask id="b" fill="#fff">
                <use xlink:href="#a"/>
            </mask>
            <g mask="url(#b)" fill="#FFF">
                <path d="M48.734 0C59.9 0 65.593 1.486 70.81 4.276c5.217 2.79 9.312 6.885 12.102 12.102 2.79 5.217 4.276 10.91 4.276 22.076v10.28c0 11.167-1.486 16.859-4.276 22.076-2.79 5.217-6.885 9.312-12.102 12.102-5.217 2.79-10.91 4.276-22.076 4.276h-10.28c-11.167 0-16.86-1.486-22.076-4.276-5.217-2.79-9.312-6.885-12.102-12.102C1.486 65.593 0 59.9 0 48.734v-10.28c0-11.167 1.486-16.86 4.276-22.076 2.79-5.217 6.885-9.312 12.102-12.102C21.595 1.486 27.288 0 38.454 0h10.28zm-6.93 26.657h-5.246l-.376 4.611-.49.018c-4.708.306-7.333 3.38-7.682 3.817l-.037.046 3.354 2.527.024-.03c.208-.243 1.753-1.952 4.493-2.18l-.678 8.367h-.084c-5.445 0-8.357 3.728-8.479 3.887l3.354 2.527.026-.031c.223-.262 1.89-2.096 4.84-2.199L33.81 60.531h5.162l.837-10.026c.413.308.823.621 1.224.927 1.575 1.204 3.18 2.43 4.824 3.297l-.474 5.802h5.162l.391-4.638c5.246-.405 8.151-4.357 8.277-4.533L55.8 48.917l-.04.05c-.27.344-1.84 2.202-4.468 2.672l.69-8.301.197-.007c5.085-.333 8.006-4.007 8.372-4.495l.035-.047-3.416-2.443-.038.049c-.277.35-1.964 2.353-4.79 2.722l1.036-12.46h-5.245l-.86 10.6a68.834 68.834 0 0 1-2.3-1.71c-1.213-.925-2.444-1.865-3.69-2.628l.522-6.262zm-.923 11.055c.513.377 1.026.77 1.523 1.149 1.468 1.121 2.96 2.262 4.486 3.113l-.657 8.083c-.88-.598-1.777-1.285-2.631-1.938-1.115-.851-2.246-1.714-3.389-2.44l.668-7.967z"/>
            </g>
        </g>
        <g fill-rule="nonzero">
            <g transform="translate(106.417 29.247)">
                <use fill="#000" xlink:href="#d"/>
                <use fill="#FFF" xlink:href="#d"/>
            </g>
        </g>
    </g>
</svg>
