<svg aria-hidden="true" style="position: absolute; width: 0; height: 0; overflow: hidden;" version="1.1" xmlns="http://www.w3.org/2000/svg" xmlns:xlink="http://www.w3.org/1999/xlink">
<defs>
<symbol id="hashtune-music-player-menu" viewBox="0 0 71 32">
<path d="M67.759 8.522h-65.043c-1.057 0-1.913-0.857-1.913-1.913v-3.826c0-1.057 0.857-1.913 1.913-1.913h65.043c1.057 0 1.913 0.857 1.913 1.913v3.826c0 1.057-0.856 1.913-1.913 1.913zM69.672 29.565v-3.826c0-1.057-1.127-1.913-2.517-1.913h-55.374c-1.39 0-2.517 0.857-2.517 1.913v3.826c0 1.057 1.127 1.913 2.517 1.913h55.374c1.39 0 2.517-0.857 2.517-1.913z"></path>
</symbol>
<symbol id="hashtune-voulme" viewBox="0 0 35 32">
<path stroke-linejoin="miter" stroke-linecap="butt" stroke-miterlimit="4" stroke-width="3.0857" d="M30.703 8.6c2.578 4.672 2.578 10.374 0 15.029"></path>
<path stroke-linejoin="miter" stroke-linecap="butt" stroke-miterlimit="4" stroke-width="3.0857" d="M1.926 16.114c-0.007 2.507 0 5.447 2.070 7.205 2.070 1.759 3.714 1.033 6.393 1.915 2.681 0.883 6.435 6.329 10.582 3.869 2.242-1.593 3.299-4.599 3.299-12.988s-1.009-11.363-3.299-12.988c-4.147-2.458-7.901 2.988-10.582 3.869-2.679 0.883-4.323 0.157-6.393 1.914s-2.077 4.698-2.070 7.205z"></path>
</symbol>
<symbol id="hashtune-wallet-connect" viewBox="0 0 61 32">
<path fill="#3b99fc" style="fill: var(--color1, #3b99fc)" d="M12.418 6.497c9.866-8.227 25.863-8.227 35.729 0l1.187 0.99c0.493 0.411 0.493 1.078 0 1.49l-4.062 3.387c-0.247 0.206-0.647 0.206-0.893 0l-1.634-1.363c-6.883-5.739-18.043-5.739-24.926 0l-1.75 1.459c-0.247 0.206-0.647 0.206-0.893 0l-4.062-3.387c-0.493-0.411-0.493-1.078 0-1.49l1.303-1.087zM56.549 13.502l3.615 3.015c0.493 0.411 0.493 1.078 0 1.49l-16.301 13.593c-0.493 0.411-1.293 0.411-1.786 0 0 0 0 0 0 0l-11.57-9.647c-0.123-0.103-0.323-0.103-0.447 0 0 0 0 0 0 0l-11.569 9.647c-0.493 0.411-1.293 0.411-1.786 0 0 0 0 0 0 0l-16.302-13.593c-0.493-0.411-0.493-1.078 0-1.49l3.615-3.015c0.493-0.411 1.293-0.411 1.786 0l11.57 9.647c0.123 0.103 0.323 0.103 0.447 0 0 0 0 0 0 0l11.569-9.647c0.493-0.411 1.293-0.411 1.786-0 0 0 0 0 0 0l11.57 9.647c0.123 0.103 0.323 0.103 0.447 0l11.569-9.647c0.493-0.411 1.293-0.411 1.786 0z"></path>
</symbol>
<symbol id="hashtune-metamask" viewBox="0 0 35 32">
<path fill="#c0ad9e" style="fill: var(--color2, #c0ad9e)" d="M10.14 29.268l4.615 1.224v-1.601l0.377-0.377h2.637v3.202h-2.826l-3.485-1.507z"></path>
<path fill="#c0ad9e" style="fill: var(--color2, #c0ad9e)" d="M25.209 29.268l-4.521 1.224v-1.601l-0.377-0.377h-2.637v3.202h2.826l3.485-1.507z"></path>
<path fill="#161616" style="fill: var(--color3, #161616)" d="M15.131 25.783l-0.377 3.108 0.471-0.377h4.898l0.565 0.377-0.377-3.108-0.753-0.471-3.767 0.094z"></path>
<path fill="#f6851b" style="fill: var(--color4, #f6851b)" d="M12.588 4.779l2.26 5.274 1.036 15.352h3.673l1.13-15.352 2.072-5.274z"></path>
<path fill="#f6851b" style="fill: var(--color4, #f6851b)" d="M2.699 16.364l-2.637 7.629 6.593-0.377h4.238v-3.296l-0.188-6.781-0.942 0.754z"></path>
<path fill="#cd6116" style="fill: var(--color5, #cd6116)" d="M7.691 17.212l7.723 0.188-0.848 3.956-3.673-0.942z"></path>
<path fill="#ea8d3a" style="fill: var(--color6, #ea8d3a)" d="M7.691 17.306l3.202 3.014v3.014z"></path>
<path fill="#f89d35" style="fill: var(--color7, #f89d35)" d="M10.893 20.414l3.767 0.942 1.224 4.050-0.848 0.471-4.144-2.449z"></path>
<path fill="#eb8f35" style="fill: var(--color8, #eb8f35)" d="M10.893 23.428l-0.754 5.84 4.992-3.485z"></path>
<path fill="#ea8e3a" style="fill: var(--color9, #ea8e3a)" d="M15.414 17.4l0.471 8.006-1.413-4.097z"></path>
<path fill="#d87c30" style="fill: var(--color10, #d87c30)" d="M6.56 23.522l4.333-0.094-0.754 5.84z"></path>
<path fill="#d87c30" style="fill: var(--color10, #d87c30)" d="M2.134 31.811l8.006-2.543-3.579-5.745-6.499 0.471z"></path>
<path fill="#e8821e" style="fill: var(--color11, #e8821e)" d="M14.849 10.054l-4.050 3.391-3.108 3.767 7.723 0.283z"></path>
<path fill="#d7c1b3" style="fill: var(--color12, #d7c1b3)" d="M10.14 29.268l4.992-3.485-0.377 3.014v1.695l-3.391-0.659z"></path>
<path fill="#d7c1b3" style="fill: var(--color12, #d7c1b3)" d="M25.209 29.268l-4.898-3.485 0.377 3.014v1.695l3.391-0.659z"></path>
<path fill="#393939" style="fill: var(--color13, #393939)" d="M13.342 19.096l1.036 2.166-3.673-0.942z"></path>
<path fill="#e88f35" style="fill: var(--color14, #e88f35)" d="M2.040 0.352l12.809 9.701-2.166-5.274z"></path>
<path fill="#763d16" style="fill: var(--color15, #763d16)" d="M2.040 0.352l-1.695 5.18 0.942 5.651-0.659 0.377 0.942 0.848-0.753 0.659 1.036 0.942-0.659 0.565 1.507 1.884 7.064-2.166c3.454-2.763 5.149-4.176 5.086-4.238s-4.333-3.296-12.809-9.701z"></path>
<path fill="#f6851b" style="fill: var(--color4, #f6851b)" d="M32.65 16.364l2.637 7.629-6.593-0.377h-4.238v-3.296l0.188-6.781 0.942 0.754z"></path>
<path fill="#cd6116" style="fill: var(--color5, #cd6116)" d="M27.658 17.212l-7.723 0.188 0.848 3.956 3.673-0.942z"></path>
<path fill="#ea8d3a" style="fill: var(--color6, #ea8d3a)" d="M27.658 17.306l-3.202 3.014v3.014z"></path>
<path fill="#f89d35" style="fill: var(--color7, #f89d35)" d="M24.456 20.414l-3.767 0.942-1.224 4.050 0.848 0.471 4.144-2.449z"></path>
<path fill="#eb8f35" style="fill: var(--color8, #eb8f35)" d="M24.456 23.428l0.753 5.84-4.898-3.391z"></path>
<path fill="#ea8e3a" style="fill: var(--color9, #ea8e3a)" d="M19.935 17.4l-0.471 8.006 1.413-4.097z"></path>
<path fill="#d87c30" style="fill: var(--color10, #d87c30)" d="M28.788 23.522l-4.333-0.094 0.753 5.84z"></path>
<path fill="#d87c30" style="fill: var(--color10, #d87c30)" d="M33.215 31.811l-8.006-2.543 3.579-5.745 6.499 0.471z"></path>
<path fill="#e8821e" style="fill: var(--color11, #e8821e)" d="M20.5 10.054l4.050 3.391 3.108 3.767-7.723 0.283z"></path>
<path fill="#393939" style="fill: var(--color13, #393939)" d="M22.007 19.096l-1.036 2.166 3.673-0.942z"></path>
<path fill="#e88f35" style="fill: var(--color14, #e88f35)" d="M33.309 0.352l-12.809 9.701 2.166-5.274z"></path>
<path fill="#763d16" style="fill: var(--color15, #763d16)" d="M33.309 0.352l1.695 5.18-0.942 5.651 0.659 0.377-0.942 0.848 0.754 0.659-1.036 0.942 0.659 0.565-1.507 1.884-7.064-2.166c-3.453-2.763-5.149-4.176-5.086-4.238s4.333-3.296 12.809-9.701z"></path>
</symbol>
<symbol id="hashtune-close" viewBox="0 0 33 32">
<path stroke-linejoin="round" stroke-linecap="round" stroke-miterlimit="4" stroke-width="4.5705" d="M3.091 2.288l27.423 27.423"></path>
<path stroke-linejoin="round" stroke-linecap="round" stroke-miterlimit="4" stroke-width="4.5705" d="M3.091 29.712l27.423-27.423"></path>
</symbol>
<symbol id="hashtune-heart-empty" viewBox="0 0 36 32">
<path stroke-linejoin="miter" stroke-linecap="butt" stroke-miterlimit="4" stroke-width="2.7429" d="M18.605 3.765c1.908-1.311 4.224-1.884 6.49-1.729 2.228 0.152 4.412 1.009 6.113 2.583 1.801 1.667 2.803 3.882 2.803 6.247s-1.002 4.58-2.802 6.245v0l-13.381 12.38-13.381-12.381c-1.8-1.665-2.802-3.88-2.802-6.245s1.002-4.58 2.802-6.247c1.701-1.574 3.886-2.431 6.113-2.583 2.266-0.155 4.582 0.418 6.49 1.729 0.27 0.186 0.529 0.384 0.777 0.593 0.248-0.21 0.506-0.408 0.776-0.593z"></path>
</symbol>
<symbol id="hashtune-ableton" viewBox="0 0 67 32">
<path d="M34.904 26.606h31.332v5.222h-31.332v-5.222zM34.904 0.496h31.332v5.222h-31.332v-5.222zM34.904 9.199h31.332v5.222h-31.332v-5.222zM34.904 17.902h31.332v5.222h-31.332v-5.222zM0.091 0.496h5.222v31.332h-5.222v-31.332zM26.201 0.496h5.222v31.332h-5.222v-31.332zM17.498 0.496h5.222v31.332h-5.222v-31.332zM8.794 0.496h5.222v31.332h-5.222v-31.332z"></path>
</symbol>
<symbol id="hashtune-wave-file" viewBox="0 0 25 32">
<path d="M13.763 16.213h-0.029c-0.072 0.464-0.177 1.184-0.249 1.586l-0.257 1.439h0.989l-0.225-1.45c-0.072-0.421-0.166-1.112-0.228-1.575zM15.419 0.153h-15.206v31.553h24.693v-22.338l-9.488-9.214zM10.202 21.872h-1.388l-0.41-2.272c-0.115-0.638-0.217-1.431-0.311-2.275h-0.019c-0.123 0.836-0.238 1.605-0.38 2.286l-0.464 2.261h-1.337l-1.184-6.932h1.399l0.34 2.768c0.094 0.79 0.155 1.584 0.236 2.428h0.032c0.091-0.855 0.247-1.608 0.391-2.441l0.493-2.757h1.091l0.464 2.738c0.123 0.782 0.246 1.554 0.33 2.46h0.021c0.091-0.906 0.174-1.648 0.265-2.449l0.34-2.749h1.318l-1.227 6.934zM14.636 21.872l-0.297-1.584h-1.243l-0.311 1.584h-1.305l1.5-6.934h1.616l1.348 6.934h-1.308zM18.969 21.872h-1.511l-1.554-6.934h1.492l0.493 2.996c0.123 0.739 0.268 1.594 0.362 2.406h0.019c0.094-0.823 0.206-1.656 0.33-2.438l0.474-2.963h1.482l-1.586 6.934zM15.304 9.756v-8.231l8.231 8.231h-8.231z"></path>
</symbol>
<symbol id="hashtune-logic-pro-x" viewBox="0 0 28 32">
<path d="M0.844 0.146c-0.394 0-0.717 0.323-0.717 0.717v30.107c0 0.394 0.323 0.717 0.717 0.717h25.806c0.394 0 0.717-0.323 0.717-0.717v-30.107c0-0.394-0.323-0.717-0.717-0.717h-25.806zM13.747 3.731c5.147 0 9.319 4.172 9.319 9.319s-4.172 9.319-9.319 9.319c-5.147 0-9.319-4.172-9.319-9.319s4.172-9.319 9.319-9.319zM13.747 6.598c-3.555 0-6.452 2.897-6.452 6.452s2.897 6.452 6.452 6.452c3.555 0 6.452-2.897 6.452-6.452s-2.897-6.452-6.452-6.452zM13.747 8.032c2.78 0 5.018 2.238 5.018 5.018s-2.238 5.018-5.018 5.018c-2.78 0-5.018-2.238-5.018-5.018s2.238-5.018 5.018-5.018zM13.747 11.616c-0.792 0-1.434 0.642-1.434 1.434s0.642 1.434 1.434 1.434c0.792 0 1.434-0.642 1.434-1.434s-0.642-1.434-1.434-1.434zM8.729 25.236h10.036c0.394 0 0.717 0.323 0.717 0.717v2.151c0 0.394-0.323 0.717-0.717 0.717h-10.036c-0.394 0-0.717-0.323-0.717-0.717v-2.151c0-0.394 0.323-0.717 0.717-0.717z"></path>
</symbol>
<symbol id="hashtune-heart-filled" viewBox="0 0 37 32">
<path d="M18.286 31.36l-14.312-13.242c-2.091-1.934-3.242-4.509-3.242-7.252s1.152-5.318 3.242-7.253c3.897-3.606 10.015-3.93 14.312-0.978 4.297-2.953 10.415-2.628 14.312 0.978 2.091 1.935 3.242 4.511 3.242 7.253s-1.152 5.318-3.242 7.252l-14.312 13.242z"></path>
</symbol>
<symbol id="hashtune-ios-skipforward-copy" viewBox="0 0 32 32">
<path d="M8.128 0.213v13.991l23.779-13.991v31.573l-23.779-13.991v13.991h-7.795v-31.573z"></path>
</symbol>
<symbol id="hashtune-skipforward" viewBox="0 0 33 32">
<path d="M24.752 0.213v13.991l-23.779-13.991v31.573l23.779-13.991v13.991h7.795v-31.573z"></path>
</symbol>
<symbol id="hashtune-Path1" viewBox="0 0 26 32">
<path d="M26.035 16.002c0 0.774-0.789 1.33-0.789 1.33l-22.158 13.725c-1.615 1.059-2.935 0.274-2.935-1.732v-26.651c0-2.011 1.32-2.79 2.938-1.734l22.158 13.731c-0.003 0 0.787 0.556 0.787 1.33z"></path>
</symbol>
<symbol id="hashtune-pause" viewBox="0 0 26 32">
<path d="M7.897 2.357v27.285c-0.014 1.071-0.878 1.935-1.949 1.949h-3.898c-1.071-0.014-1.935-0.878-1.949-1.949v-27.285c0.014-1.071 0.878-1.935 1.949-1.949h3.898c1.071 0.014 1.935 0.878 1.949 1.949zM24.138 0.408h-3.898c-1.071 0.014-1.935 0.878-1.949 1.949v27.285c0.014 1.071 0.878 1.935 1.949 1.949h3.898c1.071-0.014 1.935-0.878 1.949-1.949v-27.285c-0.014-1.071-0.878-1.935-1.949-1.949z"></path>
</symbol>
<symbol id="hashtune-repeat" viewBox="0 0 36 32">
<path d="M31.492 16.414v7.377c0 1.811-1.716 3.278-3.834 3.278h-19.169v3.278c0.002 0.331-0.228 0.63-0.585 0.76s-0.768 0.062-1.045-0.169l-5.751-4.918c-0.368-0.324-0.368-0.84 0-1.164l5.751-4.918c0.274-0.23 0.681-0.297 1.036-0.173s0.588 0.418 0.593 0.746v3.278h19.169v-7.377c0-0.453 0.429-0.82 0.958-0.82h1.917c0.529 0 0.958 0.367 0.958 0.82zM35.057 5.169l-5.751-4.918c-0.274-0.244-0.696-0.318-1.061-0.188s-0.598 0.44-0.588 0.778v3.278h-19.169c-2.117 0-3.834 1.468-3.834 3.278v7.377c0 0.453 0.429 0.82 0.958 0.82h1.917c0.529 0 0.958-0.367 0.958-0.82v-7.377h19.169v3.278c-0.002 0.331 0.228 0.63 0.585 0.76s0.768 0.062 1.045-0.169l5.751-4.918c0.386-0.322 0.394-0.849 0.019-1.18z"></path>
</symbol>
<symbol id="hashtune-shuffle" viewBox="0 0 42 32">
<path d="M33.987 23.225v-3.184c0-0.254 0.092-0.499 0.26-0.69 0.381-0.434 1.042-0.477 1.476-0.096l6.138 5.388c0.035 0.031 0.068 0.064 0.098 0.099 0.38 0.435 0.335 1.096-0.101 1.475l-6.138 5.354c-0.19 0.166-0.435 0.258-0.687 0.258-0.578 0-1.046-0.468-1.046-1.046v-3.375h-3.251c-3.872 0-7.528-1.788-9.905-4.845l-8.36-10.749c-1.585-2.038-4.022-3.23-6.604-3.23h-5.343v-4.183h5.343c3.872 0 7.528 1.788 9.905 4.845l8.36 10.749c1.585 2.038 4.022 3.23 6.604 3.23h3.251z"></path>
<path d="M33.987 4.402v-3.184c0-0.254 0.092-0.499 0.26-0.69 0.381-0.434 1.042-0.477 1.476-0.096l6.138 5.388c0.035 0.031 0.068 0.064 0.098 0.099 0.38 0.435 0.335 1.096-0.101 1.475l-6.138 5.354c-0.19 0.166-0.435 0.258-0.687 0.258-0.578 0-1.046-0.468-1.046-1.046v-3.375h-3.251c-2.582 0-5.019 1.192-6.604 3.23l-8.36 10.749c-2.377 3.057-6.033 4.845-9.905 4.845h-5.343v-4.183h5.343c2.582 0 5.019-1.192 6.604-3.23l8.36-10.749c2.377-3.057 6.033-4.845 9.905-4.845h3.251z"></path>
</symbol>
<symbol id="hashtune-globe" viewBox="0 0 32 32">
<path stroke-linejoin="round" stroke-linecap="round" stroke-miterlimit="4" stroke-width="2.876" d="M30.42 15.871c0 7.942-6.438 14.38-14.38 14.38s-14.38-6.438-14.38-14.38c0-7.942 6.438-14.38 14.38-14.38s14.38 6.438 14.38 14.38z"></path>
<path stroke-linejoin="round" stroke-linecap="round" stroke-miterlimit="4" stroke-width="2.876" d="M1.659 15.871h28.761"></path>
<path stroke-linejoin="round" stroke-linecap="round" stroke-miterlimit="4" stroke-width="2.876" d="M16.040 1.49c3.597 3.938 5.641 9.048 5.752 14.38-0.111 5.332-2.155 10.442-5.752 14.38-3.597-3.938-5.641-9.048-5.752-14.38 0.111-5.332 2.155-10.442 5.752-14.38v0z"></path>
</symbol>
<symbol id="hashtune-youtube" viewBox="0 0 45 32">
<path d="M17.732 21.868l-0.001-12.489 11.926 6.266-11.924 6.223zM43.917 7.214c0 0-0.432-3.063-1.754-4.412-1.679-1.771-3.56-1.779-4.422-1.882-6.177-0.45-15.441-0.45-15.441-0.45h-0.019c0 0-9.265 0-15.441 0.45-0.863 0.103-2.743 0.111-4.423 1.882-1.323 1.349-1.753 4.412-1.753 4.412s-0.441 3.598-0.441 7.194v3.373c0 3.598 0.441 7.194 0.441 7.194s0.43 3.063 1.753 4.412c1.68 1.771 3.886 1.716 4.868 1.9 3.531 0.342 15.007 0.447 15.007 0.447s9.274-0.014 15.451-0.464c0.862-0.104 2.743-0.113 4.422-1.884 1.323-1.349 1.754-4.412 1.754-4.412s0.441-3.596 0.441-7.194v-3.373c0-3.596-0.441-7.194-0.441-7.194v0z"></path>
</symbol>
<symbol id="hashtune-spotify" viewBox="0 0 32 32">
<path d="M25.334 14.134c-5.067-3.008-13.538-3.325-18.368-1.821-0.792 0.238-1.583-0.238-1.821-0.95-0.237-0.792 0.237-1.583 0.95-1.821 5.621-1.663 14.884-1.346 20.743 2.138 0.713 0.396 0.95 1.346 0.554 2.058-0.396 0.554-1.346 0.792-2.058 0.396zM25.176 18.567c-0.396 0.554-1.108 0.792-1.663 0.396-4.275-2.613-10.767-3.404-15.755-1.821-0.633 0.158-1.346-0.158-1.504-0.792s0.158-1.346 0.792-1.504c5.779-1.742 12.905-0.871 17.813 2.138 0.475 0.238 0.713 1.029 0.317 1.583zM23.276 22.922c-0.317 0.475-0.871 0.633-1.346 0.317-3.721-2.296-8.392-2.771-13.934-1.504-0.554 0.158-1.029-0.238-1.188-0.713-0.158-0.554 0.237-1.029 0.713-1.188 6.017-1.346 11.242-0.792 15.359 1.742 0.554 0.238 0.633 0.871 0.396 1.346zM15.992 0.042c-8.709 0-15.834 7.125-15.834 15.834s7.125 15.834 15.834 15.834c8.709 0 15.834-7.125 15.834-15.834s-7.046-15.834-15.834-15.834z"></path>
</symbol>
<symbol id="hashtune-instagram" viewBox="0 0 32 32">
<path d="M16.013 0.042c-4.3 0-4.84 0.018-6.528 0.095-1.685 0.077-2.836 0.345-3.844 0.736-1.041 0.405-1.924 0.946-2.805 1.826s-1.422 1.763-1.826 2.805c-0.391 1.007-0.659 2.158-0.736 3.844-0.077 1.689-0.095 2.228-0.095 6.528s0.018 4.839 0.095 6.528c0.077 1.685 0.345 2.836 0.736 3.844 0.405 1.041 0.946 1.924 1.826 2.805s1.763 1.422 2.805 1.826c1.007 0.391 2.158 0.659 3.844 0.736 1.689 0.077 2.228 0.095 6.528 0.095s4.839-0.018 6.528-0.095c1.685-0.077 2.836-0.345 3.844-0.736 1.041-0.405 1.924-0.946 2.805-1.826s1.422-1.763 1.826-2.805c0.391-1.007 0.659-2.158 0.736-3.844 0.077-1.689 0.095-2.228 0.095-6.528s-0.018-4.84-0.095-6.528c-0.077-1.685-0.345-2.836-0.736-3.844-0.405-1.041-0.946-1.924-1.826-2.805s-1.763-1.422-2.805-1.826c-1.007-0.391-2.158-0.659-3.844-0.736-1.689-0.077-2.228-0.095-6.528-0.095zM16.013 2.895c4.228 0 4.729 0.016 6.398 0.092 1.544 0.070 2.382 0.328 2.94 0.545 0.739 0.287 1.267 0.63 1.821 1.184s0.897 1.082 1.184 1.821c0.217 0.558 0.475 1.396 0.545 2.94 0.076 1.67 0.092 2.17 0.092 6.398s-0.016 4.729-0.092 6.398c-0.070 1.544-0.328 2.382-0.545 2.94-0.287 0.739-0.63 1.267-1.184 1.821s-1.082 0.897-1.821 1.184c-0.558 0.217-1.396 0.475-2.94 0.545-1.669 0.076-2.17 0.092-6.398 0.092s-4.729-0.016-6.398-0.092c-1.544-0.070-2.382-0.328-2.94-0.545-0.739-0.287-1.267-0.63-1.821-1.184s-0.897-1.082-1.184-1.821c-0.217-0.558-0.475-1.396-0.545-2.94-0.076-1.67-0.092-2.17-0.092-6.398s0.016-4.729 0.092-6.398c0.070-1.544 0.328-2.382 0.545-2.94 0.287-0.739 0.63-1.267 1.184-1.821s1.082-0.897 1.821-1.184c0.558-0.217 1.396-0.475 2.94-0.545 1.67-0.076 2.17-0.092 6.398-0.092zM16.013 7.745c-4.491 0-8.131 3.64-8.131 8.131s3.64 8.131 8.131 8.131c4.491 0 8.131-3.64 8.131-8.131s-3.64-8.131-8.131-8.131zM16.013 21.154c-2.915 0-5.278-2.363-5.278-5.278s2.363-5.278 5.278-5.278c2.915 0 5.278 2.363 5.278 5.278s-2.363 5.278-5.278 5.278zM26.366 7.423c0 1.049-0.851 1.9-1.9 1.9s-1.9-0.851-1.9-1.9 0.851-1.9 1.9-1.9c1.049 0 1.9 0.851 1.9 1.9z"></path>
</symbol>
<symbol id="hashtune-twitter" viewBox="0 0 39 32">
<path d="M39.034 4.048c-1.43 0.633-2.959 1.060-4.57 1.258 1.644-0.986 2.91-2.548 3.502-4.406-1.537 0.912-3.239 1.578-5.055 1.932-1.455-1.554-3.526-2.523-5.811-2.523-4.397 0-7.957 3.567-7.957 7.965 0 0.625 0.066 1.233 0.206 1.816-6.617-0.329-12.485-3.502-16.406-8.326-0.682 1.175-1.077 2.548-1.077 4.003 0 2.762 1.414 5.203 3.551 6.633-1.315-0.033-2.548-0.395-3.617-0.995 0 0.033 0 0.066 0 0.099 0 3.863 2.745 7.077 6.387 7.809-0.666 0.181-1.373 0.279-2.096 0.279-0.51 0-1.011-0.049-1.496-0.148 1.011 3.165 3.954 5.466 7.439 5.532-2.721 2.137-6.156 3.411-9.888 3.411-0.641 0-1.274-0.041-1.899-0.115 3.51 2.285 7.693 3.6 12.181 3.6 14.655 0 22.661-12.14 22.661-22.669 0-0.345-0.008-0.69-0.025-1.027 1.553-1.126 2.901-2.523 3.97-4.126z"></path>
</symbol>
<symbol id="hashtune-pen" viewBox="0 0 32 32">
<path stroke-linejoin="round" stroke-linecap="round" stroke-miterlimit="4" stroke-width="3.1086" d="M21.856 2.2l7.771 7.771-20.206 20.206h-7.771v-7.771z"></path>
</symbol>
<symbol id="hashtune-music-note" viewBox="0 0 23 32">
<path d="M8.542 27.194c-2.333 0-4.231-1.898-4.231-4.231s1.898-4.231 4.231-4.231c2.333 0 4.231 1.898 4.231 4.231s-1.898 4.231-4.231 4.231zM12.774 0.397v15.249c-1.247-0.723-2.69-1.145-4.231-1.145-4.667 0-8.462 3.795-8.462 8.462s3.795 8.462 8.462 8.462c4.667 0 8.462-3.795 8.462-8.462v-18.335h5.641v-4.231h-9.873z"></path>
</symbol>
<symbol id="hashtune-record" viewBox="0 0 32 32">
<path d="M18.871 16.163c0 1.573-1.277 2.85-2.85 2.85s-2.85-1.277-2.85-2.85c0-1.573 1.277-2.85 2.85-2.85s2.85 1.277 2.85 2.85zM25.283 16.163h-4.275c0-2.75-2.237-4.987-4.987-4.987v-4.275c5.107 0 9.262 4.155 9.262 9.262zM16.021 27.562c-6.285 0-11.399-5.114-11.399-11.399s5.114-11.399 11.399-11.399c6.285 0 11.399 5.114 11.399 11.399s-5.114 11.399-11.399 11.399zM16.021 0.49c-8.642 0-15.673 7.032-15.673 15.673s7.032 15.673 15.673 15.673c8.642 0 15.673-7.032 15.673-15.673s-7.032-15.673-15.673-15.673z"></path>
</symbol>
<symbol id="hashtune-search" viewBox="0 0 32 32">
<path stroke-linejoin="round" stroke-linecap="round" stroke-miterlimit="4" stroke-width="3.4595" d="M14.157 26.111c6.617 0 11.98-5.364 11.98-11.98s-5.364-11.98-11.98-11.98c-6.617 0-11.98 5.364-11.98 11.98s5.364 11.98 11.98 11.98z"></path>
<path stroke-linejoin="round" stroke-linecap="butt" stroke-miterlimit="4" stroke-width="3.4595" d="M22.793 22.766l7.949 7.95"></path>
</symbol>
<symbol id="hashtune-arrow-up" viewBox="0 0 32 32">
<path d="M16 10.182l-7.812 8.434c-0.517 0.558-0.517 1.419 0 1.977l0.11 0.119c0.525 0.567 1.41 0.601 1.977 0.076 0.026-0.024 0.051-0.049 0.075-0.075l5.65-6.086 5.65 6.086c0.526 0.566 1.411 0.599 1.978 0.074 0.026-0.024 0.051-0.049 0.075-0.075l0.11-0.119c0.517-0.558 0.517-1.419 0-1.977l-7.812-8.434z"></path>
</symbol>
<symbol id="hashtune-arrow-right" viewBox="0 0 32 32">
<path d="M21.818 15.928l-8.254-7.725c-0.559-0.523-1.429-0.523-1.988 0l-0.093 0.087c-0.562 0.526-0.591 1.409-0.065 1.971 0.021 0.022 0.042 0.043 0.064 0.064l5.974 5.603-5.974 5.603c-0.562 0.527-0.59 1.409-0.063 1.971 0.021 0.022 0.042 0.043 0.064 0.064l0.093 0.087c0.559 0.523 1.429 0.523 1.988 0l8.254-7.725z"></path>
</symbol>
<symbol id="hashtune-arrow-left" viewBox="0 0 32 32">
<path d="M10.182 16.072l7.809 7.657c0.566 0.555 1.471 0.555 2.037 0l0.019-0.018c0.562-0.551 0.571-1.454 0.020-2.016-0.006-0.006-0.012-0.013-0.019-0.019l-5.702-5.603 5.702-5.603c0.562-0.552 0.57-1.455 0.018-2.016-0.006-0.006-0.012-0.013-0.019-0.019l-0.019-0.018c-0.566-0.555-1.471-0.555-2.037 0l-7.809 7.657z"></path>
</symbol>
<symbol id="hashtune-arrow-down" viewBox="0 0 53 32">
<path d="M29.368 29.603c-0.582 0.583-1.371 0.91-2.195 0.911h-1.574c-0.822-0.010-1.608-0.336-2.195-0.911l-21.244-21.286c-0.392-0.389-0.612-0.918-0.612-1.47s0.22-1.081 0.612-1.47l2.94-2.94c0.382-0.39 0.904-0.609 1.449-0.609s1.068 0.22 1.449 0.609l18.387 18.428 18.387-18.428c0.389-0.392 0.918-0.612 1.47-0.612s1.081 0.22 1.47 0.612l2.899 2.94c0.392 0.389 0.612 0.918 0.612 1.47s-0.221 1.081-0.612 1.47l-21.244 21.286z"></path>
</symbol>
<symbol id="hashtune-arrow-long-left" viewBox="0 0 32 32">
<path d="M27.636 14.545h-19.156l4.183-4.195c0.566-0.567 0.565-1.486-0.001-2.052s-1.485-0.566-2.051 0l-7.702 7.702 7.702 7.702c0.566 0.566 1.485 0.566 2.051 0s0.567-1.485 0.001-2.052l-4.183-4.195h19.156c0.803 0 1.455-0.651 1.455-1.455s-0.651-1.455-1.455-1.455z"></path>
</symbol>
<symbol id="hashtune-arrow-long-right" viewBox="0 0 32 32">
<path d="M4.364 14.545h19.156l-4.183-4.195c-0.566-0.567-0.565-1.486 0.001-2.052s1.485-0.566 2.051 0l7.702 7.702-7.702 7.702c-0.566 0.566-1.485 0.566-2.051 0s-0.567-1.485-0.001-2.052l4.183-4.195h-19.156c-0.803 0-1.455-0.651-1.455-1.455s0.651-1.455 1.455-1.455z"></path>
</symbol>
<symbol id="hashtune-time" viewBox="0 0 32 32">
<path d="M16 26.182c-5.623 0-10.182-4.559-10.182-10.182s4.559-10.182 10.182-10.182c5.623 0 10.182 4.559 10.182 10.182s-4.559 10.182-10.182 10.182zM16 29.091c7.23 0 13.091-5.861 13.091-13.091s-5.861-13.091-13.091-13.091c-7.23 0-13.091 5.861-13.091 13.091s5.861 13.091 13.091 13.091zM16 10.182l-1.455 5.818c0 0.502 0.254 0.945 0.641 1.206 0.009 0.006 0.017 0.011 0.026 0.017l4.344 2.896c0.668 0.446 1.572 0.265 2.017-0.403s0.265-1.572-0.403-2.017l-3.716-2.477v-3.585c0-0.803-0.651-1.455-1.455-1.455zM14.545 15.973l1.455-5.791c-0.803 0-1.455 0.651-1.455 1.455v4.336z"></path>
</symbol>
<symbol id="hashtune-tag" viewBox="0 0 32 32">
<path d="M16.663 8.727l-9.086 9.086 6.61 6.609 9.085-9.085v-6.61h-6.61zM14.701 24.936c-0.004-0.004-0.007-0.007-0.011-0.011l0.011 0.011zM7.036 17.271l0.015 0.015c-0.005-0.005-0.010-0.010-0.015-0.015zM24 5.818c1.2 0 2.182 0.982 2.182 2.182v7.636c0 0.6-0.24 1.145-0.644 1.549l-9.818 9.818c-0.393 0.393-0.938 0.633-1.538 0.633s-1.145-0.24-1.538-0.644l-7.636-7.636c-0.404-0.393-0.644-0.938-0.644-1.538s0.251-1.156 0.644-1.549l9.818-9.818c0.393-0.393 0.938-0.633 1.538-0.633h7.636zM19.636 10.182c-1.207 0-2.182 0.975-2.182 2.182s0.975 2.182 2.182 2.182c1.207 0 2.182-0.975 2.182-2.182s-0.975-2.182-2.182-2.182z"></path>
</symbol>
<symbol id="hashtune-star" viewBox="0 0 32 32">
<path d="M16.619 3.318l3.33 7.831 8.526 0.728c0.591 0.051 0.832 0.784 0.383 1.17l-6.467 5.566 1.938 8.281c0.134 0.575-0.493 1.028-1.001 0.722l-7.327-4.39-7.327 4.39c-0.509 0.304-1.136-0.148-1.001-0.722l1.938-8.281-6.468-5.568c-0.449-0.386-0.21-1.119 0.383-1.17l8.526-0.728 3.33-7.829c0.231-0.545 1.007-0.545 1.238 0z"></path>
</symbol>
<symbol id="hashtune-share" viewBox="0 0 32 32">
<path d="M22.545 2.909c2.812 0 5.091 2.279 5.091 5.091s-2.279 5.091-5.091 5.091c-1.312 0-2.508-0.496-3.411-1.311l-6.331 4.221 6.331 4.221c0.903-0.815 2.099-1.311 3.411-1.311 2.812 0 5.091 2.279 5.091 5.091s-2.279 5.091-5.091 5.091c-2.812 0-5.091-2.279-5.091-5.091 0-0.447 0.058-0.88 0.166-1.293l-6.552-4.368c-0.847 1.635-2.555 2.752-4.523 2.752-2.812 0-5.091-2.279-5.091-5.091s2.279-5.091 5.091-5.091c1.968 0 3.676 1.117 4.523 2.752l6.552-4.368c-0.108-0.413-0.166-0.846-0.166-1.293 0-2.812 2.279-5.091 5.091-5.091zM22.545 21.818c-1.205 0-2.182 0.977-2.182 2.182s0.977 2.182 2.182 2.182c1.205 0 2.182-0.977 2.182-2.182s-0.977-2.182-2.182-2.182zM6.545 13.818c-1.205 0-2.182 0.977-2.182 2.182s0.977 2.182 2.182 2.182c1.205 0 2.182-0.977 2.182-2.182s-0.977-2.182-2.182-2.182zM22.545 5.818c-1.205 0-2.182 0.977-2.182 2.182s0.977 2.182 2.182 2.182c1.205 0 2.182-0.977 2.182-2.182s-0.977-2.182-2.182-2.182z"></path>
</symbol>
<symbol id="hashtune-Settings" viewBox="0 0 32 32">
<path d="M17.61 2.909c2.039 0 3.443 1.697 3.443 3.475v0 0.049c0.343 0.18 0.679 0.375 1.002 0.585v0l0.259-0.143c1.341-0.733 3.535-0.652 4.66 1.197v0l1.61 2.644c1.206 1.983 0.054 4.031-1.335 4.791v0l-0.285 0.156c0.004 0.113 0.007 0.227 0.009 0.336-0.001 0.109-0.004 0.223-0.009 0.336v0l0.285 0.156c1.389 0.761 2.541 2.809 1.335 4.791v0l-1.61 2.644c-1.126 1.849-3.319 1.932-4.66 1.197v0l-0.259-0.143c-0.323 0.209-0.659 0.404-1.002 0.585v0 0.049c0 1.777-1.404 3.475-3.443 3.475v0h-3.22c-2.039 0-3.443-1.697-3.443-3.475v0-0.049c-0.343-0.18-0.679-0.375-1.002-0.585v0l-0.259 0.143c-1.341 0.735-3.535 0.652-4.66-1.197v0l-1.61-2.644c-1.206-1.983-0.054-4.031 1.335-4.791v0l0.285-0.156c-0.004-0.113-0.007-0.227-0.009-0.336 0.001-0.109 0.004-0.223 0.009-0.336v0l-0.285-0.156c-1.389-0.761-2.541-2.809-1.335-4.791v0l1.61-2.644c1.126-1.849 3.319-1.93 4.66-1.197v0l0.259 0.143c0.323-0.209 0.659-0.404 1.002-0.585v0-0.049c0-1.777 1.404-3.475 3.443-3.475v0zM17.61 5.818h-3.22c-0.297 0-0.537 0.253-0.537 0.566v1.981c-1.404 0.378-2.653 1.12-3.639 2.116l-1.921-1.053c-0.285-0.156-0.637-0.086-0.785 0.159l-1.61 2.644c-0.148 0.244-0.038 0.567 0.247 0.724l2.031 1.111c-0.157 0.618-0.241 1.267-0.241 1.933s0.084 1.315 0.241 1.933l-2.031 1.111c-0.285 0.157-0.396 0.48-0.247 0.724l1.61 2.644c0.148 0.244 0.5 0.314 0.785 0.159l1.921-1.053c0.986 0.996 2.236 1.738 3.639 2.118v1.98c0 0.313 0.24 0.566 0.537 0.566h3.22c0.297 0 0.537-0.253 0.537-0.566v-1.98c1.404-0.38 2.653-1.121 3.639-2.118l1.921 1.053c0.285 0.156 0.637 0.086 0.785-0.159l1.61-2.644c0.148-0.244 0.038-0.567-0.247-0.724l-2.031-1.111c0.157-0.618 0.241-1.267 0.241-1.933s-0.084-1.315-0.241-1.933l2.031-1.111c0.285-0.157 0.396-0.48 0.247-0.724l-1.61-2.644c-0.148-0.244-0.5-0.314-0.785-0.159l-1.921 1.053c-0.986-0.996-2.236-1.738-3.639-2.116v-1.981c0-0.313-0.24-0.566-0.537-0.566zM15.994 11.636c-2.407 0-4.358 1.953-4.358 4.364s1.951 4.364 4.358 4.364c2.407 0 4.358-1.953 4.358-4.364s-1.951-4.364-4.358-4.364zM17.447 16c0 0.803-0.65 1.455-1.453 1.455s-1.453-0.652-1.453-1.455c0-0.803 0.65-1.455 1.453-1.455s1.453 0.652 1.453 1.455z"></path>
</symbol>
<symbol id="hashtune-people" viewBox="0 0 32 32">
<path d="M16 4.364c2.856 0 5.172 2.316 5.172 5.172s-2.315 5.172-5.172 5.172c-2.856 0-5.172-2.315-5.172-5.172s2.316-5.172 5.172-5.172zM16 7.273c-1.25 0-2.263 1.013-2.263 2.263s1.013 2.263 2.263 2.263c1.25 0 2.263-1.013 2.263-2.263s-1.013-2.263-2.263-2.263zM18.979 19.673c2.632 0.608 4.664 2.574 5.424 5.054h-16.806c0.76-2.481 2.792-4.447 5.424-5.054l0.224-0.052c1.813-0.418 3.697-0.418 5.51 0l0.224 0.052zM12.591 16.787l-0.224 0.052c-4.685 1.081-8.003 5.253-8.003 10.060 0 0.407 0.33 0.738 0.738 0.738h21.798c0.407 0 0.738-0.33 0.738-0.738 0-4.808-3.319-8.979-8.003-10.060l-0.224-0.052c-2.243-0.518-4.575-0.518-6.819 0z"></path>
</symbol>
<symbol id="hashtune-computer" viewBox="0 0 32 32">
<path d="M5.818 7.273h20.364v11.636h-20.364v-11.636zM4.364 4.364c-0.803 0-1.455 0.651-1.455 1.455v14.545c0 0.803 0.651 1.455 1.455 1.455h10.182v2.909h-2.909c-0.803 0-1.455 0.651-1.455 1.455s0.651 1.455 1.455 1.455h8.727c0.803 0 1.455-0.651 1.455-1.455s-0.651-1.455-1.455-1.455h-2.909v-2.909h10.182c0.803 0 1.455-0.651 1.455-1.455v-14.545c0-0.803-0.651-1.455-1.455-1.455h-23.273z"></path>
</symbol>
<symbol id="hashtune-mouse" viewBox="0 0 32 32">
<path d="M16 5.818c-3.213 0-5.818 2.605-5.818 5.818v8.727c0 3.213 2.605 5.818 5.818 5.818s5.818-2.605 5.818-5.818v-8.727c0-3.213-2.605-5.818-5.818-5.818zM7.273 11.636c0-4.82 3.907-8.727 8.727-8.727s8.727 3.907 8.727 8.727v8.727c0 4.82-3.907 8.727-8.727 8.727s-8.727-3.907-8.727-8.727v-8.727zM17.455 11.636v2.909c0 0.803-0.651 1.455-1.455 1.455s-1.455-0.651-1.455-1.455v-2.909c0-0.803 0.651-1.455 1.455-1.455s1.455 0.651 1.455 1.455z"></path>
</symbol>
<symbol id="hashtune-Pad" viewBox="0 0 32 32">
<path d="M10.182 24.727h11.636v-17.455h-11.636v17.455zM7.273 5.818c0-0.803 0.651-1.455 1.455-1.455h14.545c0.803 0 1.455 0.651 1.455 1.455v20.364c0 0.803-0.651 1.455-1.455 1.455h-14.545c-0.803 0-1.455-0.651-1.455-1.455v-20.364zM16 23.273c-0.803 0-1.455-0.651-1.455-1.455s0.651-1.455 1.455-1.455c0.803 0 1.455 0.651 1.455 1.455s-0.651 1.455-1.455 1.455z"></path>
</symbol>
<symbol id="hashtune-plus" viewBox="0 0 32 32">
<path d="M17.455 9.636c0-0.803-0.651-1.455-1.455-1.455s-1.455 0.651-1.455 1.455v4.909h-4.909c-0.803 0-1.455 0.651-1.455 1.455s0.651 1.455 1.455 1.455h4.909v4.909c0 0.803 0.651 1.455 1.455 1.455s1.455-0.651 1.455-1.455v-4.909h4.909c0.803 0 1.455-0.651 1.455-1.455s-0.651-1.455-1.455-1.455h-4.909v-4.909z"></path>
</symbol>
<symbol id="hashtune-headphones" viewBox="0 0 32 32">
<path d="M16 2.909c-7.23 0-13.091 5.831-13.091 13.023v8.012c0 0.027 0 0.054 0 0.082 0 2.797 1.954 5.065 4.364 5.065s4.364-2.268 4.364-5.065c0-2.797-1.954-5.065-4.364-5.065-0.51 0-1 0.101-1.455 0.288v-3.317c0-5.594 4.559-10.129 10.182-10.129s10.182 4.535 10.182 10.129v3.317c-0.455-0.187-0.945-0.288-1.455-0.288-2.41 0-4.364 2.268-4.364 5.065s1.954 5.065 4.364 5.065c2.41 0 4.364-2.268 4.364-5.065 0-0.027 0-0.055 0-0.082v-8.012c0-7.193-5.861-13.023-13.091-13.023zM8.149 25.724c0.32-0.372 0.578-0.963 0.578-1.698s-0.257-1.326-0.578-1.698c-0.315-0.366-0.634-0.473-0.877-0.473s-0.562 0.107-0.877 0.473c-0.32 0.372-0.578 0.963-0.578 1.698s0.257 1.326 0.578 1.698c0.315 0.366 0.634 0.473 0.877 0.473s0.562-0.107 0.877-0.473zM25.604 25.724c0.32-0.372 0.578-0.963 0.578-1.698s-0.257-1.326-0.578-1.698c-0.315-0.366-0.634-0.473-0.877-0.473s-0.562 0.107-0.877 0.473c-0.32 0.372-0.578 0.963-0.578 1.698s0.257 1.326 0.578 1.698c0.315 0.366 0.634 0.473 0.877 0.473s0.562-0.107 0.877-0.473z"></path>
</symbol>
<symbol id="hashtune-camera" viewBox="0 0 32 32">
<path d="M11.081 5.818c-1.043 0-2.002 0.558-2.519 1.455h-2.743c-1.607 0-2.909 1.302-2.909 2.909v14.545c0 1.607 1.302 2.909 2.909 2.909h20.364c1.607 0 2.909-1.302 2.909-2.909v-14.545c0-1.607-1.302-2.909-2.909-2.909h-2.743c-0.517-0.896-1.476-1.455-2.519-1.455h-9.838zM20.919 8.727l0.727 1.455h4.535v14.545h-20.364v-14.545h4.535l0.727-1.455h9.838zM16 11.636c-3.213 0-5.818 2.605-5.818 5.818s2.605 5.818 5.818 5.818c3.213 0 5.818-2.605 5.818-5.818s-2.605-5.818-5.818-5.818zM16 14.545c1.607 0 2.909 1.302 2.909 2.909s-1.302 2.909-2.909 2.909c-1.607 0-2.909-1.302-2.909-2.909s1.302-2.909 2.909-2.909z"></path>
</symbol>
<symbol id="hashtune-settings" viewBox="0 0 32 32">
<path d="M20.364 17.455c1.9 0 3.516 1.214 4.115 2.909v0h3.157c0.803 0 1.455 0.651 1.455 1.455s-0.651 1.455-1.455 1.455v0h-3.157c-0.599 1.695-2.215 2.909-4.115 2.909s-3.516-1.214-4.115-2.909v0h-11.885c-0.803 0-1.455-0.651-1.455-1.455s0.651-1.455 1.455-1.455v0h11.885c0.599-1.695 2.215-2.909 4.115-2.909zM20.364 20.364c-0.803 0-1.455 0.651-1.455 1.455s0.651 1.455 1.455 1.455c0.803 0 1.455-0.651 1.455-1.455s-0.651-1.455-1.455-1.455zM11.636 5.818c1.9 0 3.516 1.214 4.115 2.909v0h11.885c0.803 0 1.455 0.651 1.455 1.455s-0.651 1.455-1.455 1.455v0h-11.885c-0.599 1.695-2.215 2.909-4.115 2.909s-3.516-1.214-4.115-2.909v0h-3.157c-0.803 0-1.455-0.651-1.455-1.455s0.651-1.455 1.455-1.455v0h3.157c0.599-1.695 2.215-2.909 4.115-2.909zM11.636 8.727c-0.803 0-1.455 0.651-1.455 1.455s0.651 1.455 1.455 1.455c0.803 0 1.455-0.651 1.455-1.455s-0.651-1.455-1.455-1.455z"></path>
</symbol>
<symbol id="hashtune-check" viewBox="0 0 32 32">
<path fill="#000" style="fill: var(--color16, #000)" d="M23.718 9.134c0.579-0.557 1.499-0.54 2.057 0.039s0.54 1.499-0.039 2.057l-12.084 11.636c-0.563 0.542-1.455 0.542-2.018 0l-5.371-5.172c-0.579-0.557-0.596-1.478-0.039-2.057s1.478-0.596 2.057-0.039l4.362 4.2 11.075-10.665z"></path>
</symbol>
<symbol id="hashtune-lock" viewBox="0 0 32 32">
<path d="M16 2.909c4.017 0 7.273 3.256 7.273 7.273v0 2.909h2.909c0.803 0 1.455 0.651 1.455 1.455v0 13.091c0 0.803-0.651 1.455-1.455 1.455v0h-20.364c-0.803 0-1.455-0.651-1.455-1.455v0-13.091c0-0.803 0.651-1.455 1.455-1.455v0h2.909v-2.909c0-4.017 3.256-7.273 7.273-7.273zM16 5.818c-2.41 0-4.364 1.954-4.364 4.364v2.909h8.727v-2.909c0-2.41-1.954-4.364-4.364-4.364zM7.273 16v10.182h17.455v-10.182h-17.455zM17.455 18.909c0-0.803-0.651-1.455-1.455-1.455s-1.455 0.651-1.455 1.455v1.455c0 0.803 0.651 1.455 1.455 1.455s1.455-0.651 1.455-1.455v-1.455z"></path>
</symbol>
<symbol id="hashtune-unlock" viewBox="0 0 32 32">
<path d="M23.273 10.182v2.909h2.909c0.803 0 1.455 0.651 1.455 1.455v13.091c0 0.803-0.651 1.455-1.455 1.455h-20.364c-0.803 0-1.455-0.651-1.455-1.455v-13.091c0-0.803 0.651-1.455 1.455-1.455h14.545v-2.909c0-2.41-1.954-4.364-4.364-4.364-1.641 0-3.073 0.905-3.819 2.251-0.39 0.702-1.275 0.956-1.978 0.566s-0.956-1.275-0.566-1.978c1.239-2.232 3.623-3.748 6.363-3.748 4.017 0 7.273 3.256 7.273 7.273zM7.273 16v10.182h17.455v-10.182h-17.455zM17.455 18.909c0-0.803-0.651-1.455-1.455-1.455s-1.455 0.651-1.455 1.455v1.455c0 0.803 0.651 1.455 1.455 1.455s1.455-0.651 1.455-1.455v-1.455z"></path>
</symbol>
<symbol id="hashtune-bookmark" viewBox="0 0 32 32">
<path d="M10.267 27.16c-0.328 0.305-0.778 0.477-1.248 0.477-0.964 0-1.745-0.709-1.745-1.583v-21.69h17.455v21.69c0 0.426-0.189 0.834-0.526 1.132-0.689 0.611-1.795 0.599-2.468-0.026l-5.681-5.272c-0.034-0.012-0.072-0.012-0.106 0l-5.681 5.272zM21.818 7.002h-11.636v16.462l3.785-3.512 0.137-0.112c1.111-0.798 2.681-0.798 3.792 0l0.137 0.112 3.785 3.512v-16.462z"></path>
</symbol>
<symbol id="hashtune-basket" viewBox="0 0 32 32">
<path d="M16 2.909c-3.254 0-5.891 2.605-5.891 5.818h-1.345c-0.766 0-1.404 0.58-1.468 1.334l-1.473 17.455c-0.072 0.848 0.606 1.575 1.468 1.575h17.418c0.862 0 1.539-0.727 1.468-1.575l-1.473-17.455c-0.064-0.754-0.702-1.334-1.468-1.334h-1.345c0-3.213-2.638-5.818-5.891-5.818zM13.054 8.727c0-1.607 1.319-2.909 2.946-2.909s2.946 1.302 2.946 2.909h-5.891zM8.892 26.182l1.227-14.545h11.762l1.227 14.545h-14.217z"></path>
</symbol>
<symbol id="hashtune-file-blank" viewBox="0 0 32 32">
<path d="M17.455 2.909l8.764 8.764h-0.036v14.545c0 1.607-1.302 2.909-2.909 2.909h-14.545c-1.607 0-2.909-1.302-2.909-2.909v-20.363c0-1.607 1.302-2.909 2.909-2.909h8.727v-0.036zM16 10.218v-4.364h-6.545c-0.401 0-0.727 0.326-0.727 0.727v18.909c0 0.402 0.326 0.727 0.727 0.727h13.091c0.401 0 0.727-0.326 0.727-0.727v-12.363h-4.364c-1.607 0-2.909-1.303-2.909-2.909z"></path>
</symbol>
<symbol id="hashtune-download" viewBox="0 0 32 32">
<path d="M16 2.909c0.803 0 1.455 0.651 1.455 1.455v15.398l4.79-4.79c0.568-0.568 1.489-0.568 2.057 0s0.568 1.489 0 2.057l-7.273 7.273c-0.568 0.568-1.489 0.568-2.057 0l-7.273-7.273c-0.568-0.568-0.568-1.489 0-2.057s1.489-0.568 2.057 0l4.79 4.79v-15.398c0-0.803 0.651-1.455 1.455-1.455zM8.727 26.182c-0.803 0-1.455 0.651-1.455 1.455s0.651 1.455 1.455 1.455h14.545c0.803 0 1.455-0.651 1.455-1.455s-0.651-1.455-1.455-1.455h-14.545z"></path>
</symbol>
<symbol id="hashtune-sound" viewBox="0 0 32 32">
<path d="M10.182 5.818c0.803 0 1.455 0.651 1.455 1.455v17.455c0 0.803-0.651 1.455-1.455 1.455s-1.455-0.651-1.455-1.455v-17.455c0-0.803 0.651-1.455 1.455-1.455zM4.364 10.182c0.803 0 1.455 0.651 1.455 1.455v8.727c0 0.803-0.651 1.455-1.455 1.455s-1.455-0.651-1.455-1.455v-8.727c0-0.803 0.651-1.455 1.455-1.455zM16 10.182c0.803 0 1.455 0.651 1.455 1.455v8.727c0 0.803-0.651 1.455-1.455 1.455s-1.455-0.651-1.455-1.455v-8.727c0-0.803 0.651-1.455 1.455-1.455zM29.091 11.636c0-0.803-0.651-1.455-1.455-1.455s-1.455 0.651-1.455 1.455v8.727c0 0.803 0.651 1.455 1.455 1.455s1.455-0.651 1.455-1.455v-8.727zM23.273 7.273c0-0.803-0.651-1.455-1.455-1.455s-1.455 0.651-1.455 1.455v17.455c0 0.803 0.651 1.455 1.455 1.455s1.455-0.651 1.455-1.455v-17.455z"></path>
</symbol>
<symbol id="hashtune-code" viewBox="0 0 32 32">
<path fill="#000" style="fill: var(--color16, #000)" d="M8.757 9.672l-5.848 7.047 5.848 7.047c0.432 0.521 1.206 0.593 1.727 0.161 0-0 0.001-0 0.001-0.001 0.521-0.433 0.593-1.207 0.16-1.729l-4.548-5.479 4.548-5.479c0.433-0.522 0.361-1.295-0.16-1.729s-1.294-0.362-1.727 0.159c-0 0-0 0.001-0.001 0.001zM21.356 11.241l4.548 5.479-4.548 5.479c-0.433 0.522-0.361 1.295 0.16 1.729s1.294 0.362 1.727-0.159c0-0 0-0.001 0.001-0.001l5.848-7.047-5.848-7.047c-0.432-0.521-1.206-0.593-1.727-0.161-0 0-0.001 0-0.001 0.001-0.521 0.433-0.593 1.207-0.16 1.729z"></path>
</symbol>
<symbol id="hashtune-call" viewBox="0 0 32 32">
<path d="M4.51 7.463c-0.396-0.803 0.047-1.754 0.909-1.991l3.939-1.082c0.329-0.090 0.676 0.061 0.835 0.362l2.7 5.107c0.167 0.316 0.080 0.707-0.205 0.921l-2.317 1.741c2.617 3.818 5.206 6.342 8.727 8.727l1.708-2.327c0.217-0.294 0.617-0.383 0.937-0.207l5.377 2.951c0.298 0.163 0.444 0.512 0.348 0.839l-1.103 3.796c-0.256 0.886-1.263 1.313-2.087 0.899-2.359-1.185-4.218-2.035-6.743-3.887-2.604-1.834-6.874-5.961-9.181-9.181-1.501-2.096-2.988-4.938-3.843-6.669z"></path>
</symbol>
<symbol id="hashtune-calendar" viewBox="0 0 32 32">
<path d="M13.091 2.909c-0.803 0-1.455 0.651-1.455 1.455h-7.273c-0.803 0-1.455 0.651-1.455 1.455v21.818c0 0.803 0.651 1.455 1.455 1.455h23.273c0.803 0 1.455-0.651 1.455-1.455v-21.818c0-0.803-0.651-1.455-1.455-1.455h-7.273c0-0.803-0.651-1.455-1.455-1.455s-1.455 0.651-1.455 1.455h-2.909c0-0.803-0.651-1.455-1.455-1.455zM17.455 7.273c0 0.803 0.651 1.455 1.455 1.455s1.455-0.651 1.455-1.455h5.818v18.909h-20.364v-18.909h5.818c0 0.803 0.651 1.455 1.455 1.455s1.455-0.651 1.455-1.455h2.909zM11.636 20.364c0-0.803-0.651-1.455-1.455-1.455s-1.455 0.651-1.455 1.455c0 0.803 0.651 1.455 1.455 1.455s1.455-0.651 1.455-1.455zM16 21.818c-0.803 0-1.455-0.651-1.455-1.455s0.651-1.455 1.455-1.455c0.803 0 1.455 0.651 1.455 1.455s-0.651 1.455-1.455 1.455zM23.273 20.364c0-0.803-0.651-1.455-1.455-1.455s-1.455 0.651-1.455 1.455c0 0.803 0.651 1.455 1.455 1.455s1.455-0.651 1.455-1.455zM10.182 16c-0.803 0-1.455-0.651-1.455-1.455s0.651-1.455 1.455-1.455c0.803 0 1.455 0.651 1.455 1.455s-0.651 1.455-1.455 1.455zM17.455 14.545c0-0.803-0.651-1.455-1.455-1.455s-1.455 0.651-1.455 1.455c0 0.803 0.651 1.455 1.455 1.455s1.455-0.651 1.455-1.455zM21.818 16c-0.803 0-1.455-0.651-1.455-1.455s0.651-1.455 1.455-1.455c0.803 0 1.455 0.651 1.455 1.455s-0.651 1.455-1.455 1.455z"></path>
</symbol>
<symbol id="hashtune-attach" viewBox="0 0 32 32">
<path d="M21.868 7.421c-0.58-0.007-1.254 0.228-1.92 1.021-3.689 4.394-5.476 6.583-7.27 8.889-0.208 0.266-0.22 0.458-0.204 0.58 0.019 0.159 0.109 0.355 0.285 0.527 0.179 0.173 0.374 0.247 0.511 0.255 0.099 0.006 0.211-0.016 0.351-0.176l4.797-5.609c0.531-0.628 1.44-0.682 2.031-0.119 0.591 0.564 0.641 1.53 0.112 2.16l-4.841 5.658c-1.562 1.776-3.715 1.235-4.895 0.093-0.543-0.55-1.065-1.529-1.2-2.387-0.125-1.005 0.144-2.041 0.839-2.932 1.815-2.333 3.638-4.564 7.34-8.975 1.183-1.408 2.633-2.061 4.099-2.042 1.425 0.019 2.732 0.669 3.713 1.599 1.91 1.808 3.036 5.257 0.733 8.020-1.337 1.6-2.352 2.751-3.414 3.951-1.537 1.74-3.171 3.587-6.010 7.069-1.485 1.82-3.348 2.646-5.21 2.634-1.827-0.012-3.553-0.823-4.86-2.079-1.236-1.213-2.241-3.133-2.455-5.024-0.198-2.035 0.399-4.185 1.971-6.134 2.672-3.315 4.272-5.306 5.203-6.468 0.465-0.582 0.764-0.954 0.945-1.183l0.191-0.24 0.052-0.067c0.511-0.647 1.417-0.733 2.026-0.191 0.608 0.543 0.688 1.507 0.177 2.154l-0.015 0.019-0.044 0.055-0.195 0.246c-0.183 0.23-0.483 0.607-0.95 1.188-0.934 1.165-2.535 3.159-5.21 6.476-1.101 1.366-1.404 2.695-1.293 3.83 0.093 1.277 0.604 2.214 1.521 3.069 0.848 0.815 1.913 1.283 2.95 1.29 1.001 0.006 2.073-0.415 3.024-1.581 2.924-3.578 4.596-5.471 6.121-7.194v0c1.056-1.196 2.042-2.311 3.324-3.85 0.897-1.078 0.672-2.602-0.493-3.706-0.556-0.527-1.217-0.817-1.839-0.826z"></path>
</symbol>
</defs>
</svg>
