
<svg version="1.1" xmlns="http://www.w3.org/2000/svg" width="32" height="32" viewBox="0 0 32 32">
<title>attach</title>
<path d="M21.868 7.421c-0.58-0.007-1.254 0.228-1.92 1.021-3.689 4.394-5.476 6.583-7.27 8.889-0.208 0.266-0.22 0.458-0.204 0.58 0.019 0.159 0.109 0.355 0.285 0.527 0.179 0.173 0.374 0.247 0.511 0.255 0.099 0.006 0.211-0.016 0.351-0.176l4.797-5.609c0.531-0.628 1.44-0.682 2.031-0.119 0.591 0.564 0.641 1.53 0.112 2.16l-4.841 5.658c-1.562 1.776-3.715 1.235-4.895 0.093-0.543-0.55-1.065-1.529-1.2-2.387-0.125-1.005 0.144-2.041 0.839-2.932 1.815-2.333 3.638-4.564 7.34-8.975 1.183-1.408 2.633-2.061 4.099-2.042 1.425 0.019 2.732 0.669 3.713 1.599 1.91 1.808 3.036 5.257 0.733 8.020-1.337 1.6-2.352 2.751-3.414 3.951-1.537 1.74-3.171 3.587-6.010 7.069-1.485 1.82-3.348 2.646-5.21 2.634-1.827-0.012-3.553-0.823-4.86-2.079-1.236-1.213-2.241-3.133-2.455-5.024-0.198-2.035 0.399-4.185 1.971-6.134 2.672-3.315 4.272-5.306 5.203-6.468 0.465-0.582 0.764-0.954 0.945-1.183l0.191-0.24 0.052-0.067c0.511-0.647 1.417-0.733 2.026-0.191 0.608 0.543 0.688 1.507 0.177 2.154l-0.015 0.019-0.044 0.055-0.195 0.246c-0.183 0.23-0.483 0.607-0.95 1.188-0.934 1.165-2.535 3.159-5.21 6.476-1.101 1.366-1.404 2.695-1.293 3.83 0.093 1.277 0.604 2.214 1.521 3.069 0.848 0.815 1.913 1.283 2.95 1.29 1.001 0.006 2.073-0.415 3.024-1.581 2.924-3.578 4.596-5.471 6.121-7.194v0c1.056-1.196 2.042-2.311 3.324-3.85 0.897-1.078 0.672-2.602-0.493-3.706-0.556-0.527-1.217-0.817-1.839-0.826z"></path>
</svg>
