
<svg version="1.1" xmlns="http://www.w3.org/2000/svg" width="32" height="32" viewBox="0 0 32 32">
<title>basket</title>
<path d="M16 2.909c-3.254 0-5.891 2.605-5.891 5.818h-1.345c-0.766 0-1.404 0.58-1.468 1.334l-1.473 17.455c-0.072 0.848 0.606 1.575 1.468 1.575h17.418c0.862 0 1.539-0.727 1.468-1.575l-1.473-17.455c-0.064-0.754-0.702-1.334-1.468-1.334h-1.345c0-3.213-2.638-5.818-5.891-5.818zM13.054 8.727c0-1.607 1.319-2.909 2.946-2.909s2.946 1.302 2.946 2.909h-5.891zM8.892 26.182l1.227-14.545h11.762l1.227 14.545h-14.217z"></path>
</svg>
