
<svg version="1.1" xmlns="http://www.w3.org/2000/svg" width="32" height="32" viewBox="0 0 32 32">
<title>camera</title>
<path d="M11.081 5.818c-1.043 0-2.002 0.558-2.519 1.455h-2.743c-1.607 0-2.909 1.302-2.909 2.909v14.545c0 1.607 1.302 2.909 2.909 2.909h20.364c1.607 0 2.909-1.302 2.909-2.909v-14.545c0-1.607-1.302-2.909-2.909-2.909h-2.743c-0.517-0.896-1.476-1.455-2.519-1.455h-9.838zM20.919 8.727l0.727 1.455h4.535v14.545h-20.364v-14.545h4.535l0.727-1.455h9.838zM16 11.636c-3.213 0-5.818 2.605-5.818 5.818s2.605 5.818 5.818 5.818c3.213 0 5.818-2.605 5.818-5.818s-2.605-5.818-5.818-5.818zM16 14.545c1.607 0 2.909 1.302 2.909 2.909s-1.302 2.909-2.909 2.909c-1.607 0-2.909-1.302-2.909-2.909s1.302-2.909 2.909-2.909z"></path>
</svg>
