
<svg version="1.1" xmlns="http://www.w3.org/2000/svg" width="32" height="32" viewBox="0 0 32 32">
<title>code</title>
<path fill="#000" d="M8.757 9.672l-5.848 7.047 5.848 7.047c0.432 0.521 1.206 0.593 1.727 0.161 0-0 0.001-0 0.001-0.001 0.521-0.433 0.593-1.207 0.16-1.729l-4.548-5.479 4.548-5.479c0.433-0.522 0.361-1.295-0.16-1.729s-1.294-0.362-1.727 0.159c-0 0-0 0.001-0.001 0.001zM21.356 11.241l4.548 5.479-4.548 5.479c-0.433 0.522-0.361 1.295 0.16 1.729s1.294 0.362 1.727-0.159c0-0 0-0.001 0.001-0.001l5.848-7.047-5.848-7.047c-0.432-0.521-1.206-0.593-1.727-0.161-0 0-0.001 0-0.001 0.001-0.521 0.433-0.593 1.207-0.16 1.729z"></path>
</svg>
