
<svg version="1.1" xmlns="http://www.w3.org/2000/svg" width="32" height="32" viewBox="0 0 32 32">
<title>download</title>
<path d="M16 2.909c0.803 0 1.455 0.651 1.455 1.455v15.398l4.79-4.79c0.568-0.568 1.489-0.568 2.057 0s0.568 1.489 0 2.057l-7.273 7.273c-0.568 0.568-1.489 0.568-2.057 0l-7.273-7.273c-0.568-0.568-0.568-1.489 0-2.057s1.489-0.568 2.057 0l4.79 4.79v-15.398c0-0.803 0.651-1.455 1.455-1.455zM8.727 26.182c-0.803 0-1.455 0.651-1.455 1.455s0.651 1.455 1.455 1.455h14.545c0.803 0 1.455-0.651 1.455-1.455s-0.651-1.455-1.455-1.455h-14.545z"></path>
</svg>
