
<svg version="1.1" xmlns="http://www.w3.org/2000/svg" width="32" height="32" viewBox="0 0 32 32">
<title>file-blank</title>
<path d="M17.455 2.909l8.764 8.764h-0.036v14.545c0 1.607-1.302 2.909-2.909 2.909h-14.545c-1.607 0-2.909-1.302-2.909-2.909v-20.363c0-1.607 1.302-2.909 2.909-2.909h8.727v-0.036zM16 10.218v-4.364h-6.545c-0.401 0-0.727 0.326-0.727 0.727v18.909c0 0.402 0.326 0.727 0.727 0.727h13.091c0.401 0 0.727-0.326 0.727-0.727v-12.363h-4.364c-1.607 0-2.909-1.303-2.909-2.909z"></path>
</svg>
