
<svg version="1.1" xmlns="http://www.w3.org/2000/svg" width="36" height="32" viewBox="0 0 36 32">
<title>heart-empty</title>
<path fill="none" stroke-linejoin="miter" stroke-linecap="butt" stroke-miterlimit="4" stroke-width="2.7429" stroke="#000" d="M18.605 3.765c1.908-1.311 4.224-1.884 6.49-1.729 2.228 0.152 4.412 1.009 6.113 2.583 1.801 1.667 2.803 3.882 2.803 6.247s-1.002 4.58-2.802 6.245v0l-13.381 12.38-13.381-12.381c-1.8-1.665-2.802-3.88-2.802-6.245s1.002-4.58 2.802-6.247c1.701-1.574 3.886-2.431 6.113-2.583 2.266-0.155 4.582 0.418 6.49 1.729 0.27 0.186 0.529 0.384 0.777 0.593 0.248-0.21 0.506-0.408 0.776-0.593z"></path>
</svg>
