
<svg version="1.1" xmlns="http://www.w3.org/2000/svg" width="32" height="32" viewBox="0 0 32 32">
<title>instagram</title>
<path d="M16.013 0.042c-4.3 0-4.84 0.018-6.528 0.095-1.685 0.077-2.836 0.345-3.844 0.736-1.041 0.405-1.924 0.946-2.805 1.826s-1.422 1.763-1.826 2.805c-0.391 1.007-0.659 2.158-0.736 3.844-0.077 1.689-0.095 2.228-0.095 6.528s0.018 4.839 0.095 6.528c0.077 1.685 0.345 2.836 0.736 3.844 0.405 1.041 0.946 1.924 1.826 2.805s1.763 1.422 2.805 1.826c1.007 0.391 2.158 0.659 3.844 0.736 1.689 0.077 2.228 0.095 6.528 0.095s4.839-0.018 6.528-0.095c1.685-0.077 2.836-0.345 3.844-0.736 1.041-0.405 1.924-0.946 2.805-1.826s1.422-1.763 1.826-2.805c0.391-1.007 0.659-2.158 0.736-3.844 0.077-1.689 0.095-2.228 0.095-6.528s-0.018-4.84-0.095-6.528c-0.077-1.685-0.345-2.836-0.736-3.844-0.405-1.041-0.946-1.924-1.826-2.805s-1.763-1.422-2.805-1.826c-1.007-0.391-2.158-0.659-3.844-0.736-1.689-0.077-2.228-0.095-6.528-0.095zM16.013 2.895c4.228 0 4.729 0.016 6.398 0.092 1.544 0.070 2.382 0.328 2.94 0.545 0.739 0.287 1.267 0.63 1.821 1.184s0.897 1.082 1.184 1.821c0.217 0.558 0.475 1.396 0.545 2.94 0.076 1.67 0.092 2.17 0.092 6.398s-0.016 4.729-0.092 6.398c-0.070 1.544-0.328 2.382-0.545 2.94-0.287 0.739-0.63 1.267-1.184 1.821s-1.082 0.897-1.821 1.184c-0.558 0.217-1.396 0.475-2.94 0.545-1.669 0.076-2.17 0.092-6.398 0.092s-4.729-0.016-6.398-0.092c-1.544-0.070-2.382-0.328-2.94-0.545-0.739-0.287-1.267-0.63-1.821-1.184s-0.897-1.082-1.184-1.821c-0.217-0.558-0.475-1.396-0.545-2.94-0.076-1.67-0.092-2.17-0.092-6.398s0.016-4.729 0.092-6.398c0.070-1.544 0.328-2.382 0.545-2.94 0.287-0.739 0.63-1.267 1.184-1.821s1.082-0.897 1.821-1.184c0.558-0.217 1.396-0.475 2.94-0.545 1.67-0.076 2.17-0.092 6.398-0.092zM16.013 7.745c-4.491 0-8.131 3.64-8.131 8.131s3.64 8.131 8.131 8.131c4.491 0 8.131-3.64 8.131-8.131s-3.64-8.131-8.131-8.131zM16.013 21.154c-2.915 0-5.278-2.363-5.278-5.278s2.363-5.278 5.278-5.278c2.915 0 5.278 2.363 5.278 5.278s-2.363 5.278-5.278 5.278zM26.366 7.423c0 1.049-0.851 1.9-1.9 1.9s-1.9-0.851-1.9-1.9 0.851-1.9 1.9-1.9c1.049 0 1.9 0.851 1.9 1.9z"></path>
</svg>
