
<svg version="1.1" xmlns="http://www.w3.org/2000/svg" fill="#ffffff" width="28" height="32" viewBox="0 0 28 32">
<title>logic-pro-x</title>
<path d="M0.844 0.146c-0.394 0-0.717 0.323-0.717 0.717v30.107c0 0.394 0.323 0.717 0.717 0.717h25.806c0.394 0 0.717-0.323 0.717-0.717v-30.107c0-0.394-0.323-0.717-0.717-0.717h-25.806zM13.747 3.731c5.147 0 9.319 4.172 9.319 9.319s-4.172 9.319-9.319 9.319c-5.147 0-9.319-4.172-9.319-9.319s4.172-9.319 9.319-9.319zM13.747 6.598c-3.555 0-6.452 2.897-6.452 6.452s2.897 6.452 6.452 6.452c3.555 0 6.452-2.897 6.452-6.452s-2.897-6.452-6.452-6.452zM13.747 8.032c2.78 0 5.018 2.238 5.018 5.018s-2.238 5.018-5.018 5.018c-2.78 0-5.018-2.238-5.018-5.018s2.238-5.018 5.018-5.018zM13.747 11.616c-0.792 0-1.434 0.642-1.434 1.434s0.642 1.434 1.434 1.434c0.792 0 1.434-0.642 1.434-1.434s-0.642-1.434-1.434-1.434zM8.729 25.236h10.036c0.394 0 0.717 0.323 0.717 0.717v2.151c0 0.394-0.323 0.717-0.717 0.717h-10.036c-0.394 0-0.717-0.323-0.717-0.717v-2.151c0-0.394 0.323-0.717 0.717-0.717z"></path>
</svg>
