
<svg version="1.1" xmlns="http://www.w3.org/2000/svg" width="35" height="32" viewBox="0 0 35 32">
<title>metamask</title>
<path fill="#c0ad9e" d="M10.14 29.268l4.615 1.224v-1.601l0.377-0.377h2.637v3.202h-2.826l-3.485-1.507z"></path>
<path fill="#c0ad9e" d="M25.209 29.268l-4.521 1.224v-1.601l-0.377-0.377h-2.637v3.202h2.826l3.485-1.507z"></path>
<path fill="#161616" d="M15.131 25.783l-0.377 3.108 0.471-0.377h4.898l0.565 0.377-0.377-3.108-0.753-0.471-3.767 0.094z"></path>
<path fill="#f6851b" d="M12.588 4.779l2.26 5.274 1.036 15.352h3.673l1.13-15.352 2.072-5.274z"></path>
<path fill="#f6851b" d="M2.699 16.364l-2.637 7.629 6.593-0.377h4.238v-3.296l-0.188-6.781-0.942 0.754z"></path>
<path fill="#cd6116" d="M7.691 17.212l7.723 0.188-0.848 3.956-3.673-0.942z"></path>
<path fill="#ea8d3a" d="M7.691 17.306l3.202 3.014v3.014z"></path>
<path fill="#f89d35" d="M10.893 20.414l3.767 0.942 1.224 4.050-0.848 0.471-4.144-2.449z"></path>
<path fill="#eb8f35" d="M10.893 23.428l-0.754 5.84 4.992-3.485z"></path>
<path fill="#ea8e3a" d="M15.414 17.4l0.471 8.006-1.413-4.097z"></path>
<path fill="#d87c30" d="M6.56 23.522l4.333-0.094-0.754 5.84z"></path>
<path fill="#d87c30" d="M2.134 31.811l8.006-2.543-3.579-5.745-6.499 0.471z"></path>
<path fill="#e8821e" d="M14.849 10.054l-4.050 3.391-3.108 3.767 7.723 0.283z"></path>
<path fill="#d7c1b3" d="M10.14 29.268l4.992-3.485-0.377 3.014v1.695l-3.391-0.659z"></path>
<path fill="#d7c1b3" d="M25.209 29.268l-4.898-3.485 0.377 3.014v1.695l3.391-0.659z"></path>
<path fill="#393939" d="M13.342 19.096l1.036 2.166-3.673-0.942z"></path>
<path fill="#e88f35" d="M2.040 0.352l12.809 9.701-2.166-5.274z"></path>
<path fill="#763d16" d="M2.040 0.352l-1.695 5.18 0.942 5.651-0.659 0.377 0.942 0.848-0.753 0.659 1.036 0.942-0.659 0.565 1.507 1.884 7.064-2.166c3.454-2.763 5.149-4.176 5.086-4.238s-4.333-3.296-12.809-9.701z"></path>
<path fill="#f6851b" d="M32.65 16.364l2.637 7.629-6.593-0.377h-4.238v-3.296l0.188-6.781 0.942 0.754z"></path>
<path fill="#cd6116" d="M27.658 17.212l-7.723 0.188 0.848 3.956 3.673-0.942z"></path>
<path fill="#ea8d3a" d="M27.658 17.306l-3.202 3.014v3.014z"></path>
<path fill="#f89d35" d="M24.456 20.414l-3.767 0.942-1.224 4.050 0.848 0.471 4.144-2.449z"></path>
<path fill="#eb8f35" d="M24.456 23.428l0.753 5.84-4.898-3.391z"></path>
<path fill="#ea8e3a" d="M19.935 17.4l-0.471 8.006 1.413-4.097z"></path>
<path fill="#d87c30" d="M28.788 23.522l-4.333-0.094 0.753 5.84z"></path>
<path fill="#d87c30" d="M33.215 31.811l-8.006-2.543 3.579-5.745 6.499 0.471z"></path>
<path fill="#e8821e" d="M20.5 10.054l4.050 3.391 3.108 3.767-7.723 0.283z"></path>
<path fill="#393939" d="M22.007 19.096l-1.036 2.166 3.673-0.942z"></path>
<path fill="#e88f35" d="M33.309 0.352l-12.809 9.701 2.166-5.274z"></path>
<path fill="#763d16" d="M33.309 0.352l1.695 5.18-0.942 5.651 0.659 0.377-0.942 0.848 0.754 0.659-1.036 0.942 0.659 0.565-1.507 1.884-7.064-2.166c-3.453-2.763-5.149-4.176-5.086-4.238s4.333-3.296 12.809-9.701z"></path>
</svg>
