
<svg version="1.1" xmlns="http://www.w3.org/2000/svg" width="32" height="32" viewBox="0 0 32 32">
<title>mouse</title>
<path d="M16 5.818c-3.213 0-5.818 2.605-5.818 5.818v8.727c0 3.213 2.605 5.818 5.818 5.818s5.818-2.605 5.818-5.818v-8.727c0-3.213-2.605-5.818-5.818-5.818zM7.273 11.636c0-4.82 3.907-8.727 8.727-8.727s8.727 3.907 8.727 8.727v8.727c0 4.82-3.907 8.727-8.727 8.727s-8.727-3.907-8.727-8.727v-8.727zM17.455 11.636v2.909c0 0.803-0.651 1.455-1.455 1.455s-1.455-0.651-1.455-1.455v-2.909c0-0.803 0.651-1.455 1.455-1.455s1.455 0.651 1.455 1.455z"></path>
</svg>
