
<svg version="1.1" xmlns="http://www.w3.org/2000/svg" width="32" height="32" viewBox="0 0 32 32">
<title>people</title>
<path d="M16 4.364c2.856 0 5.172 2.316 5.172 5.172s-2.315 5.172-5.172 5.172c-2.856 0-5.172-2.315-5.172-5.172s2.316-5.172 5.172-5.172zM16 7.273c-1.25 0-2.263 1.013-2.263 2.263s1.013 2.263 2.263 2.263c1.25 0 2.263-1.013 2.263-2.263s-1.013-2.263-2.263-2.263zM18.979 19.673c2.632 0.608 4.664 2.574 5.424 5.054h-16.806c0.76-2.481 2.792-4.447 5.424-5.054l0.224-0.052c1.813-0.418 3.697-0.418 5.51 0l0.224 0.052zM12.591 16.787l-0.224 0.052c-4.685 1.081-8.003 5.253-8.003 10.060 0 0.407 0.33 0.738 0.738 0.738h21.798c0.407 0 0.738-0.33 0.738-0.738 0-4.808-3.319-8.979-8.003-10.060l-0.224-0.052c-2.243-0.518-4.575-0.518-6.819 0z"></path>
</svg>
