
<svg version="1.1" xmlns="http://www.w3.org/2000/svg" width="32" height="32" viewBox="0 0 32 32">
<title>record</title>
<path d="M18.871 16.163c0 1.573-1.277 2.85-2.85 2.85s-2.85-1.277-2.85-2.85c0-1.573 1.277-2.85 2.85-2.85s2.85 1.277 2.85 2.85zM25.283 16.163h-4.275c0-2.75-2.237-4.987-4.987-4.987v-4.275c5.107 0 9.262 4.155 9.262 9.262zM16.021 27.562c-6.285 0-11.399-5.114-11.399-11.399s5.114-11.399 11.399-11.399c6.285 0 11.399 5.114 11.399 11.399s-5.114 11.399-11.399 11.399zM16.021 0.49c-8.642 0-15.673 7.032-15.673 15.673s7.032 15.673 15.673 15.673c8.642 0 15.673-7.032 15.673-15.673s-7.032-15.673-15.673-15.673z"></path>
</svg>
