
<svg version="1.1" xmlns="http://www.w3.org/2000/svg" width="42" height="32" viewBox="0 0 42 32">
<title>shuffle</title>
<path d="M33.987 23.225v-3.184c0-0.254 0.092-0.499 0.26-0.69 0.381-0.434 1.042-0.477 1.476-0.096l6.138 5.388c0.035 0.031 0.068 0.064 0.098 0.099 0.38 0.435 0.335 1.096-0.101 1.475l-6.138 5.354c-0.19 0.166-0.435 0.258-0.687 0.258-0.578 0-1.046-0.468-1.046-1.046v-3.375h-3.251c-3.872 0-7.528-1.788-9.905-4.845l-8.36-10.749c-1.585-2.038-4.022-3.23-6.604-3.23h-5.343v-4.183h5.343c3.872 0 7.528 1.788 9.905 4.845l8.36 10.749c1.585 2.038 4.022 3.23 6.604 3.23h3.251z"></path>
<path d="M33.987 4.402v-3.184c0-0.254 0.092-0.499 0.26-0.69 0.381-0.434 1.042-0.477 1.476-0.096l6.138 5.388c0.035 0.031 0.068 0.064 0.098 0.099 0.38 0.435 0.335 1.096-0.101 1.475l-6.138 5.354c-0.19 0.166-0.435 0.258-0.687 0.258-0.578 0-1.046-0.468-1.046-1.046v-3.375h-3.251c-2.582 0-5.019 1.192-6.604 3.23l-8.36 10.749c-2.377 3.057-6.033 4.845-9.905 4.845h-5.343v-4.183h5.343c2.582 0 5.019-1.192 6.604-3.23l8.36-10.749c2.377-3.057 6.033-4.845 9.905-4.845h3.251z"></path>
</svg>
