
<svg version="1.1" xmlns="http://www.w3.org/2000/svg" width="32" height="32" viewBox="0 0 32 32">
<title>spotify</title>
<path d="M25.334 14.134c-5.067-3.008-13.538-3.325-18.368-1.821-0.792 0.238-1.583-0.238-1.821-0.95-0.237-0.792 0.237-1.583 0.95-1.821 5.621-1.663 14.884-1.346 20.743 2.138 0.713 0.396 0.95 1.346 0.554 2.058-0.396 0.554-1.346 0.792-2.058 0.396zM25.176 18.567c-0.396 0.554-1.108 0.792-1.663 0.396-4.275-2.613-10.767-3.404-15.755-1.821-0.633 0.158-1.346-0.158-1.504-0.792s0.158-1.346 0.792-1.504c5.779-1.742 12.905-0.871 17.813 2.138 0.475 0.238 0.713 1.029 0.317 1.583zM23.276 22.922c-0.317 0.475-0.871 0.633-1.346 0.317-3.721-2.296-8.392-2.771-13.934-1.504-0.554 0.158-1.029-0.238-1.188-0.713-0.158-0.554 0.237-1.029 0.713-1.188 6.017-1.346 11.242-0.792 15.359 1.742 0.554 0.238 0.633 0.871 0.396 1.346zM15.992 0.042c-8.709 0-15.834 7.125-15.834 15.834s7.125 15.834 15.834 15.834c8.709 0 15.834-7.125 15.834-15.834s-7.046-15.834-15.834-15.834z"></path>
</svg>
