
<svg version="1.1" xmlns="http://www.w3.org/2000/svg" width="32" height="32" viewBox="0 0 32 32">
<title>tag</title>
<path d="M16.663 8.727l-9.086 9.086 6.61 6.609 9.085-9.085v-6.61h-6.61zM14.701 24.936c-0.004-0.004-0.007-0.007-0.011-0.011l0.011 0.011zM7.036 17.271l0.015 0.015c-0.005-0.005-0.010-0.010-0.015-0.015zM24 5.818c1.2 0 2.182 0.982 2.182 2.182v7.636c0 0.6-0.24 1.145-0.644 1.549l-9.818 9.818c-0.393 0.393-0.938 0.633-1.538 0.633s-1.145-0.24-1.538-0.644l-7.636-7.636c-0.404-0.393-0.644-0.938-0.644-1.538s0.251-1.156 0.644-1.549l9.818-9.818c0.393-0.393 0.938-0.633 1.538-0.633h7.636zM19.636 10.182c-1.207 0-2.182 0.975-2.182 2.182s0.975 2.182 2.182 2.182c1.207 0 2.182-0.975 2.182-2.182s-0.975-2.182-2.182-2.182z"></path>
</svg>
