
<svg version="1.1" xmlns="http://www.w3.org/2000/svg" width="32" height="32" viewBox="0 0 32 32">
<title>time</title>
<path d="M16 26.182c-5.623 0-10.182-4.559-10.182-10.182s4.559-10.182 10.182-10.182c5.623 0 10.182 4.559 10.182 10.182s-4.559 10.182-10.182 10.182zM16 29.091c7.23 0 13.091-5.861 13.091-13.091s-5.861-13.091-13.091-13.091c-7.23 0-13.091 5.861-13.091 13.091s5.861 13.091 13.091 13.091zM16 10.182l-1.455 5.818c0 0.502 0.254 0.945 0.641 1.206 0.009 0.006 0.017 0.011 0.026 0.017l4.344 2.896c0.668 0.446 1.572 0.265 2.017-0.403s0.265-1.572-0.403-2.017l-3.716-2.477v-3.585c0-0.803-0.651-1.455-1.455-1.455zM14.545 15.973l1.455-5.791c-0.803 0-1.455 0.651-1.455 1.455v4.336z"></path>
</svg>
