
<svg version="1.1" xmlns="http://www.w3.org/2000/svg" width="39" height="32" viewBox="0 0 39 32">
<title>twitter</title>
<path d="M39.034 4.048c-1.43 0.633-2.959 1.060-4.57 1.258 1.644-0.986 2.91-2.548 3.502-4.406-1.537 0.912-3.239 1.578-5.055 1.932-1.455-1.554-3.526-2.523-5.811-2.523-4.397 0-7.957 3.567-7.957 7.965 0 0.625 0.066 1.233 0.206 1.816-6.617-0.329-12.485-3.502-16.406-8.326-0.682 1.175-1.077 2.548-1.077 4.003 0 2.762 1.414 5.203 3.551 6.633-1.315-0.033-2.548-0.395-3.617-0.995 0 0.033 0 0.066 0 0.099 0 3.863 2.745 7.077 6.387 7.809-0.666 0.181-1.373 0.279-2.096 0.279-0.51 0-1.011-0.049-1.496-0.148 1.011 3.165 3.954 5.466 7.439 5.532-2.721 2.137-6.156 3.411-9.888 3.411-0.641 0-1.274-0.041-1.899-0.115 3.51 2.285 7.693 3.6 12.181 3.6 14.655 0 22.661-12.14 22.661-22.669 0-0.345-0.008-0.69-0.025-1.027 1.553-1.126 2.901-2.523 3.97-4.126z"></path>
</svg>
