
<svg version="1.1" xmlns="http://www.w3.org/2000/svg" width="32" height="32" viewBox="0 0 32 32">
<title>unlock</title>
<path d="M23.273 10.182v2.909h2.909c0.803 0 1.455 0.651 1.455 1.455v13.091c0 0.803-0.651 1.455-1.455 1.455h-20.364c-0.803 0-1.455-0.651-1.455-1.455v-13.091c0-0.803 0.651-1.455 1.455-1.455h14.545v-2.909c0-2.41-1.954-4.364-4.364-4.364-1.641 0-3.073 0.905-3.819 2.251-0.39 0.702-1.275 0.956-1.978 0.566s-0.956-1.275-0.566-1.978c1.239-2.232 3.623-3.748 6.363-3.748 4.017 0 7.273 3.256 7.273 7.273zM7.273 16v10.182h17.455v-10.182h-17.455zM17.455 18.909c0-0.803-0.651-1.455-1.455-1.455s-1.455 0.651-1.455 1.455v1.455c0 0.803 0.651 1.455 1.455 1.455s1.455-0.651 1.455-1.455v-1.455z"></path>
</svg>
