
<svg version="1.1" xmlns="http://www.w3.org/2000/svg" width="45" height="32" viewBox="0 0 45 32">
<title>youtube</title>
<path d="M17.732 21.868l-0.001-12.489 11.926 6.266-11.924 6.223zM43.917 7.214c0 0-0.432-3.063-1.754-4.412-1.679-1.771-3.56-1.779-4.422-1.882-6.177-0.45-15.441-0.45-15.441-0.45h-0.019c0 0-9.265 0-15.441 0.45-0.863 0.103-2.743 0.111-4.423 1.882-1.323 1.349-1.753 4.412-1.753 4.412s-0.441 3.598-0.441 7.194v3.373c0 3.598 0.441 7.194 0.441 7.194s0.43 3.063 1.753 4.412c1.68 1.771 3.886 1.716 4.868 1.9 3.531 0.342 15.007 0.447 15.007 0.447s9.274-0.014 15.451-0.464c0.862-0.104 2.743-0.113 4.422-1.884 1.323-1.349 1.754-4.412 1.754-4.412s0.441-3.596 0.441-7.194v-3.373c0-3.596-0.441-7.194-0.441-7.194v0z"></path>
</svg>
