<?xml version="1.0" encoding="UTF-8"?>
<svg width="116px" height="26px" viewBox="0 0 116 26" version="1.1" xmlns="http://www.w3.org/2000/svg" xmlns:xlink="http://www.w3.org/1999/xlink">
    <title>logo-black</title>
    <defs>
        <rect id="path-1" x="0" y="0" width="26.0128379" height="26.0128379"></rect>
        <path d="M14.5399552,3.52935937e-16 C17.8716182,-2.59080625e-16 19.569908,0.443316039 21.1264633,1.27577089 C22.6830185,2.10822573 23.9046122,3.32981939 24.737067,4.88637462 C25.5695218,6.44292985 26.0128379,8.14121968 26.0128379,11.4728827 L26.0128379,14.5399552 C26.0128379,17.8716182 25.5695218,19.569908 24.737067,21.1264633 C23.9046122,22.6830185 22.6830185,23.9046122 21.1264633,24.737067 C19.569908,25.5695218 17.8716182,26.0128379 14.5399552,26.0128379 L11.4728827,26.0128379 C8.14121968,26.0128379 6.44292985,25.5695218 4.88637462,24.737067 C3.32981939,23.9046122 2.10822573,22.6830185 1.27577089,21.1264633 C0.443316039,19.569908 1.72720417e-16,17.8716182 -2.35290625e-16,14.5399552 L2.35290625e-16,11.4728827 C-1.72720417e-16,8.14121968 0.443316039,6.44292985 1.27577089,4.88637462 C2.10822573,3.32981939 3.32981939,2.10822573 4.88637462,1.27577089 C6.44292985,0.443316039 8.14121968,2.59080625e-16 11.4728827,-3.52935937e-16 L14.5399552,3.52935937e-16 Z M12.4723208,7.95325447 L10.9072889,7.95325447 L10.795,9.329 L10.6488183,9.33428677 C9.24406998,9.42566516 8.46115814,10.3427059 8.3568031,10.4729744 L8.34597323,10.4867698 L9.34661552,11.2406721 L9.35375835,11.2320643 C9.41566513,11.1592021 9.87659108,10.6495634 10.6940626,10.5815632 L10.6940626,10.5815632 L10.4919441,13.0777751 L10.4919441,13.0777751 L10.4669758,13.0775958 C8.84218634,13.0775958 7.97338954,14.189902 7.93716909,14.2374105 L7.93716909,14.2374105 L8.93781138,14.9913128 L8.94547952,14.9820875 C9.01209822,14.9038759 9.5092589,14.3568772 10.3893356,14.3260662 L10.3893356,14.3260662 L10.0875103,18.0595834 L11.6277004,18.0595834 L11.8776092,15.0684727 C12.000676,15.1601639 12.1231588,15.2537332 12.2426142,15.3449658 C12.7126887,15.7040801 13.1914036,16.0698834 13.6818254,16.3285072 L13.6818254,16.3285072 L13.5405171,18.0595834 L15.0807072,18.0595834 L15.1973458,16.6759195 C16.7623332,16.5551405 17.6291479,15.3759604 17.6668646,15.323568 L17.6668646,15.323568 L16.6478271,14.5945981 L16.6360733,14.6097594 C16.5550889,14.7121058 16.0869659,15.2664133 15.3027991,15.4065612 L15.3027991,15.4065612 L15.509,12.93 L15.5674422,12.9280397 C17.0845953,12.8286799 17.9561053,11.7324167 18.0652721,11.5870195 L18.0756688,11.5729273 L17.0566312,10.8439574 L17.045364,10.8585034 C16.9626145,10.9632343 16.4594157,11.5605335 15.6161882,11.670669 L15.6161882,11.670669 L15.9253276,7.95325447 L14.3602957,7.95325447 L14.1035558,11.1156929 C13.8731339,10.9543577 13.6403159,10.7762801 13.4174828,10.605807 C13.0556918,10.3296356 12.6883932,10.0491609 12.3166941,9.82152614 L12.3166941,9.82152614 L12.4723208,7.95325447 Z M12.1969364,11.251608 C12.3499795,11.364067 12.5030345,11.4809988 12.6514183,11.5943251 C13.0892391,11.9287991 13.5345552,12.2690757 13.9898443,12.5231538 L13.9898443,12.5231538 L13.7937487,14.934672 C13.5313439,14.7562555 13.2634835,14.55138 13.0086787,14.3564477 C12.6760708,14.1025531 12.338808,13.8450215 11.9977506,13.6282534 L11.9977506,13.6282534 Z" id="path-3"></path>
    </defs>
    <g id="logo-black" stroke="none" stroke-width="1" fill="none" fill-rule="evenodd">
        <g id="Group" transform="translate(-0.010000, 0.000000)">
            <g id="icon">
                <mask id="mask-2" fill="white">
                    <use xlink:href="#path-1"></use>
                </mask>
                <g id="Mask"></g>
                <g id="Rectangle" mask="url(#mask-2)">
                    <g transform="translate(-0.000000, -0.000000)">
                        <mask id="mask-4" fill="white">
                            <use xlink:href="#path-3"></use>
                        </mask>
                        <use id="Combined-Shape" stroke="none" fill="#000000" fill-rule="evenodd" xlink:href="#path-3"></use>
                    </g>
                </g>
                <g id="waves" mask="url(#mask-2)">
                    <g transform="translate(8.179818, 18.798340)"></g>
                </g>
            </g>
            <text id="Hashtune" font-family="Sk-Modernist-Bold, Sk-Modernist" font-size="17.935441" font-weight="bold" letter-spacing="0.422192622" fill="#000000">
                <tspan x="30.6128238" y="20.5">Hashtune</tspan>
            </text>
        </g>
    </g>
</svg>