<?xml version="1.0" encoding="UTF-8"?>
<svg width="206px" height="49px" viewBox="0 0 206 49" version="1.1" xmlns="http://www.w3.org/2000/svg" xmlns:xlink="http://www.w3.org/1999/xlink">
    <title>logo</title>
    <defs>
        <rect id="path-1" x="0" y="0" width="48.4376982" height="48.4376982"></rect>
        <rect id="path-3" x="0" y="0" width="48.4376982" height="48.4376982"></rect>
        <path d="M4.47520176,22.9103613 L4.47520176,13.1584291 L15.0286626,13.1584291 L15.0286626,22.9103613 L19.5038644,22.9103613 L19.5038644,0 L15.0286626,0 L15.0286626,9.15078569 L4.47520176,9.15078569 L4.47520176,0 L0,0 L0,22.9103613 L4.47520176,22.9103613 Z M30.7252658,23.3779196 C32.6956905,23.3779196 34.8664973,22.4761999 36.1355844,21.1069217 L36.1355844,22.9103613 L40.1432277,22.9103613 L40.1432277,6.21184722 L36.1355844,6.21184722 L36.1355844,8.01528674 C34.8664973,6.64600859 32.6956905,5.74428883 30.7252658,5.74428883 C25.5153294,5.74428883 22.0420385,9.2843738 22.0420385,14.5611042 C22.0420385,19.8378347 25.5153294,23.3779196 30.7252658,23.3779196 Z M31.1260302,19.8378347 C28.0869006,19.8378347 26.0496819,17.7338219 26.0496819,14.5611042 C26.0496819,11.3883866 28.0869006,9.2843738 31.1260302,9.2843738 C34.1317627,9.2843738 36.1355844,11.3883866 36.1355844,14.5611042 C36.1355844,17.7338219 34.1317627,19.8378347 31.1260302,19.8378347 Z M49.961954,23.3779196 C54.6041409,23.3779196 57.7100645,21.1737158 57.7100645,17.86741 C57.7100645,14.8282805 55.940022,13.5591934 50.3627183,12.3902974 C47.9915293,11.855945 47.2233977,11.4217836 47.2233977,10.720446 C47.2233977,9.7519322 48.3254996,9.08399163 49.961954,9.08399163 C51.4314232,9.08399163 52.7673043,9.85212328 53.2682598,10.9876222 L56.9419329,10.0859025 C55.973419,7.48093429 53.1680687,5.74428883 49.961954,5.74428883 C45.9209136,5.74428883 43.2157543,7.81490457 43.2157543,10.9208282 C43.2157543,13.6927815 44.7520176,14.7948834 49.5945867,15.8969854 C52.7005103,16.4981319 53.7024211,17.0658813 53.7024211,17.86741 C53.7024211,19.1698941 52.1995549,20.0382168 49.961954,20.0382168 C47.7243531,20.0382168 46.1212958,18.9027179 45.9877077,17.2328665 L42.2138435,17.2328665 C42.3474316,20.9065396 45.4533552,23.3779196 49.961954,23.3779196 Z M63.7883236,22.9103613 L63.7883236,12.9914439 C63.7883236,10.753843 65.424778,9.2843738 67.862761,9.2843738 C70.3007441,9.2843738 71.9371985,10.753843 71.9371985,12.9914439 L71.9371985,22.9103613 L75.9448418,22.9103613 L75.9448418,12.5238855 C75.9448418,8.4494481 72.9057123,5.74428883 68.3303194,5.74428883 C66.6938651,5.74428883 64.8904255,6.41222939 63.7883236,7.44753726 L63.7883236,0 L59.7806802,0 L59.7806802,22.9103613 L63.7883236,22.9103613 Z M85.9639502,23.3779196 C87.0660522,23.3779196 88.2015511,23.1775375 88.8026976,22.9103613 L88.8026976,20.0382168 L85.8971562,20.0382168 C85.0288335,20.0382168 84.427687,19.4704674 84.427687,18.6355417 L84.427687,9.55155003 L88.6357125,9.55155003 L88.6357125,6.21184722 L84.427687,6.21184722 L84.427687,0 L80.4200436,0 L80.4200436,6.21184722 L77.7482813,6.21184722 L77.7482813,9.55155003 L80.4200436,9.55155003 L80.4200436,18.6355417 C80.4200436,21.474289 82.6242474,23.3779196 85.9639502,23.3779196 Z M98.8886001,23.3779196 C100.525054,23.3779196 102.328494,22.7099791 103.430596,21.6746712 L103.430596,22.9103613 L107.438239,22.9103613 L107.438239,6.21184722 L103.430596,6.21184722 L103.430596,16.1307646 C103.430596,18.3683654 101.794142,19.8378347 99.3561585,19.8378347 C96.9181755,19.8378347 95.2817211,18.3683654 95.2817211,16.1307646 L95.2817211,6.21184722 L91.2740777,6.21184722 L91.2740777,16.598323 C91.2740777,20.6727604 94.3132073,23.3779196 98.8886001,23.3779196 Z M114.518409,22.9103613 L114.518409,12.9914439 C114.518409,10.753843 116.154864,9.2843738 118.592847,9.2843738 C121.03083,9.2843738 122.667284,10.753843 122.667284,12.9914439 L122.667284,22.9103613 L126.674927,22.9103613 L126.674927,12.5238855 C126.674927,8.4494481 123.635798,5.74428883 119.060405,5.74428883 C117.423951,5.74428883 115.620511,6.41222939 114.518409,7.44753726 L114.518409,6.21184722 L110.510766,6.21184722 L110.510766,22.9103613 L114.518409,22.9103613 Z M137.796138,23.3779196 C141.870575,23.3779196 145.343866,20.9065396 146.445968,17.2328665 L142.371531,17.2328665 C141.603399,18.9027179 139.766562,20.0382168 137.796138,20.0382168 C135.19117,20.0382168 133.187348,18.3015714 132.819981,15.6632062 L146.512762,15.6632062 L146.846732,15.3292359 L146.846732,14.5611042 C146.846732,9.2843738 143.239853,5.74428883 137.796138,5.74428883 C132.352422,5.74428883 128.745543,9.2843738 128.745543,14.5611042 C128.745543,19.8378347 132.352422,23.3779196 137.796138,23.3779196 Z M142.505119,12.3235034 L133.087157,12.3235034 C133.855289,10.2528876 135.558537,9.08399163 137.796138,9.08399163 C140.033739,9.08399163 141.736987,10.2528876 142.505119,12.3235034 Z" id="path-5"></path>
    </defs>
    <g id="Specifications" stroke="none" stroke-width="1" fill="none" fill-rule="evenodd">
        <g id="logo">
            <g id="icon">
                <g id="Rectangle-Clipped">
                    <mask id="mask-2" fill="white">
                        <use xlink:href="#path-1"></use>
                    </mask>
                    <g id="path-1"></g>
                    <g id="Rectangle" mask="url(#mask-2)" fill="#FFFFFF">
                        <g id="Combined-Shape">
                            <path d="M27.0743993,-6.57191055e-16 C33.2781856,-6.57191055e-16 36.4405183,0.825485038 39.3389317,2.37557338 C42.2373448,3.9256617 44.5120365,6.20035335 46.0621248,9.09876653 C47.612213,11.9971797 48.4376982,15.1595125 48.4376982,21.3632988 L48.4376982,27.0743993 C48.4376982,33.2781856 47.612213,36.4405183 46.0621248,39.3389317 C44.5120365,42.2373448 42.2373448,44.5120365 39.3389317,46.0621248 C36.4405183,47.612213 33.2781856,48.4376982 27.0743993,48.4376982 L21.3632988,48.4376982 C15.1595125,48.4376982 11.9971797,47.612213 9.09876653,46.0621248 C6.20035335,44.5120365 3.9256617,42.2373448 2.37557338,39.3389317 C0.825485038,36.4405183 -4.38127371e-16,33.2781856 -4.38127371e-16,27.0743993 L-4.38127371e-16,21.3632988 C-4.38127371e-16,15.1595125 0.825485038,11.9971797 2.37557338,9.09876653 C3.9256617,6.20035335 6.20035335,3.9256617 9.09876653,2.37557338 C11.9971797,0.825485038 15.1595125,-6.57191055e-16 21.3632988,-6.57191055e-16 L27.0743993,-6.57191055e-16 Z M23.2243215,14.8095083 L20.3101242,14.8095083 L20.1010345,17.3712414 L19.8288341,17.3810857 C17.2130958,17.5512386 15.75526,19.2588317 15.5609437,19.5014006 L15.5407777,19.5270886 L17.4040427,20.9309067 L17.4173431,20.9148784 C17.5326178,20.7792039 18.3908937,19.8302215 19.9130821,19.7036004 L19.9130821,19.7036004 L19.5367235,24.3517192 L19.5367235,24.3517192 L19.4902308,24.3513853 C16.4647608,24.3513853 14.8470012,26.4225761 14.7795562,26.5110402 L14.7795562,26.5110402 L16.6428212,27.9148583 L16.6570998,27.8976802 C16.7811484,27.7520448 17.7068959,26.7334955 19.3456594,26.6761233 L19.3456594,26.6761233 L18.7836399,33.6281898 L21.6515801,33.6281898 L22.1169275,28.0585354 C22.3460863,28.2292707 22.5741578,28.4035032 22.796592,28.5733846 C23.6719031,29.2420802 24.5633033,29.9232312 25.4765025,30.4048065 L25.4765025,30.4048065 L25.2133767,33.6281898 L28.0813169,33.6281898 L28.298506,31.0517122 C31.2126204,30.8268133 32.8266892,28.6310987 32.8969203,28.5335404 L32.8969203,28.5335404 L30.9994022,27.1761482 L30.9775158,27.2043796 C30.8267173,27.3949556 29.95504,28.4271144 28.4948673,28.6880795 L28.4948673,28.6880795 L28.8788276,24.0765517 L28.987651,24.0729015 C31.8126947,23.8878867 33.4355064,21.846569 33.6387825,21.5758294 L33.6581419,21.5495888 L31.7606236,20.1921965 L31.7396433,20.2192822 C31.585558,20.4142984 30.6485672,21.5265107 29.0784194,21.7315906 L29.0784194,21.7315906 L29.6540583,14.8095083 L26.739861,14.8095083 L26.2617936,20.6981868 C25.8327321,20.3977695 25.3992089,20.0661767 24.9842783,19.7487441 C24.3105985,19.2344939 23.6266632,18.7122306 22.9345338,18.288359 L22.9345338,18.288359 L23.2243215,14.8095083 Z M22.7115367,20.9512701 C22.9965136,21.1606765 23.2815125,21.3784116 23.5578134,21.5894329 C24.3730659,22.2122466 25.2022752,22.8458651 26.0500549,23.318976 L26.0500549,23.318976 L25.6849114,27.8093892 C25.1962955,27.4771654 24.697521,27.0956731 24.2230569,26.7326957 C23.603718,26.2599265 22.9757114,25.7803849 22.340639,25.3767477 L22.340639,25.3767477 L22.7115367,20.9512701 Z" id="path-3"></path>
                        </g>
                    </g>
                </g>
                <g id="waves-Clipped">
                    <mask id="mask-4" fill="white">
                        <use xlink:href="#path-3"></use>
                    </mask>
                    <g id="path-1"></g>
                </g>
            </g>
            <g id="Hashtune" transform="translate(58.940217, 15.744811)" fill-rule="nonzero">
                <g>
                    <use fill="#000000" xlink:href="#path-5"></use>
                    <use fill="#FFFFFF" xlink:href="#path-5"></use>
                </g>
            </g>
        </g>
    </g>
</svg>