<?xml version="1.0" encoding="UTF-8"?>
<svg width="1000px" height="1001px" viewBox="0 0 1000 1001" version="1.1" xmlns="http://www.w3.org/2000/svg" xmlns:xlink="http://www.w3.org/1999/xlink">
    <title>upload-pattern</title>
    <g id="UI-Wireframes" stroke="none" stroke-width="1" fill="none" fill-rule="evenodd" opacity="0.0158720471">
        <g id="upload-pattern" transform="translate(0.000000, 3.000000)" stroke="#FFFFFF" stroke-width="5">
            <path d="M551.12,994.84 C551.12,994.84 539.618,988.389 525.559,980.505 C511.501,972.621 488.495,972.621 474.436,980.505 C460.378,988.389 448.876,994.84 448.876,994.84" id="Path"></path>
            <path d="M399.23,987.26 C399.23,987.26 421.903,975.483 449.614,961.089 C477.325,946.696 522.67,946.696 550.384,961.089 C578.095,975.483 600.768,987.26 600.768,987.26" id="Path"></path>
            <path d="M648.69,974.94 C648.69,974.94 615.235,958.904 574.347,939.304 C533.459,919.705 466.547,919.705 425.667,939.304 C384.779,958.904 351.324,974.94 351.324,974.94" id="Path"></path>
            <path d="M305.38,958.13 C305.38,958.13 349.17,938.846 402.692,915.276 C456.213,891.706 543.792,891.706 597.312,915.276 C650.833,938.846 694.623,958.13 694.623,958.13" id="Path"></path>
            <path d="M738.33,937.07 C738.33,937.07 684.706,915.492 619.17,889.119 C553.634,862.746 446.38,862.746 380.84,889.119 C315.3,915.492 261.68,937.07 261.68,937.07" id="Path"></path>
            <path d="M220.45,912.03 C220.45,912.03 283.349,889.056 360.23,860.976 C437.108,832.897 562.91,832.897 639.79,860.976 C716.668,889.056 779.57,912.03 779.57,912.03" id="Path"></path>
            <path d="M818.05,883.24 C818.05,883.24 746.489,859.711 659.03,830.953 C571.567,802.195 428.45,802.195 340.98,830.953 C253.51,859.711 181.96,883.24 181.96,883.24" id="Path"></path>
            <path d="M146.45,850.97 L323.23,799.193 C420.457,770.716 579.56,770.716 676.78,799.193 L853.56,850.97" id="Path"></path>
            <path d="M885.82,815.47 C885.82,815.47 799.009,793.128 692.91,765.822 C586.81,738.515 413.19,738.515 307.09,765.822 C200.99,793.128 114.18,815.47 114.18,815.47" id="Path"></path>
            <path d="M85.392,776.97 C85.392,776.97 178.679,756.258 292.692,730.943 C406.712,705.627 593.282,705.627 707.302,730.943 C821.322,756.258 914.602,776.97 914.602,776.97" id="Path"></path>
            <path d="M939.65,735.75 C939.65,735.75 840.728,717.281 719.82,694.71 C598.92,672.138 401.07,672.138 280.17,694.71 C159.26,717.281 60.34,735.75 60.34,735.75" id="Path"></path>
            <path d="M39.292,692.04 C39.292,692.04 142.952,676.374 269.642,657.228 C396.332,638.082 603.652,638.082 730.352,657.228 C857.052,676.374 960.702,692.04 960.702,692.04" id="Path"></path>
            <path d="M977.52,646.1 C977.52,646.1 870.08,633.74 738.76,618.633 C607.44,603.526 392.56,603.526 261.24,618.633 C129.92,633.74 22.48,646.1 22.48,646.1" id="Path"></path>
            <path d="M10.158,598.19 C10.158,598.19 120.368,589.58 255.078,579.056 C389.788,568.533 610.218,568.533 744.918,579.056 C879.628,589.58 989.838,598.19 989.838,598.19" id="Path"></path>
            <path d="M997.42,548.54 C997.42,548.54 885.5,544.068 748.71,538.603 C611.92,533.14 388.08,533.14 251.29,538.603 C114.5,544.068 2.58,548.54 2.58,548.54" id="Path"></path>
            <path d="M2.5811,446.3 C2.5811,446.3 114.5011,450.772 251.2911,456.237 C388.0811,461.7 611.9211,461.7 748.7111,456.237 C885.5011,450.772 997.4211,446.3 997.4211,446.3" id="Path"></path>
            <path d="M989.84,396.65 C989.84,396.65 879.63,405.26 744.92,415.784 C610.21,426.307 389.78,426.307 255.08,415.784 C120.37,405.26 10.16,396.65 10.16,396.65" id="Path"></path>
            <path d="M22.478,348.73 C22.478,348.73 129.918,361.09 261.238,376.197 C392.558,391.304 607.438,391.304 738.758,376.197 C870.078,361.09 977.518,348.73 977.518,348.73" id="Path"></path>
            <path d="M960.71,302.8 C960.71,302.8 857.05,318.466 730.36,337.612 C603.67,356.758 396.35,356.758 269.65,337.612 C142.95,318.466 39.3,302.8 39.3,302.8" id="Path"></path>
            <path d="M60.347,259.09 C60.347,259.09 159.269,277.559 280.177,300.13 C401.077,322.702 598.927,322.702 719.827,300.13 C840.737,277.559 939.657,259.09 939.657,259.09" id="Path"></path>
            <path d="M914.61,217.86 C914.61,217.86 821.323,238.572 707.31,263.887 C593.29,289.203 406.72,289.203 292.7,263.887 C178.68,238.572 85.4,217.86 85.4,217.86" id="Path"></path>
            <path d="M114.18,179.37 C114.18,179.37 200.991,201.712 307.09,229.018 C413.19,256.325 586.81,256.325 692.91,229.018 C799.01,201.712 885.82,179.37 885.82,179.37" id="Path"></path>
            <path d="M853.55,143.87 L676.77,195.647 C579.543,224.124 420.44,224.124 323.22,195.647 L146.44,143.87" id="Path"></path>
            <path d="M181.95,111.59 C181.95,111.59 253.511,135.119 340.97,163.877 C428.433,192.635 571.55,192.635 659.02,163.877 C746.49,135.119 818.04,111.59 818.04,111.59" id="Path"></path>
            <path d="M779.55,82.812 C779.55,82.812 716.651,105.786 639.77,133.866 C562.892,161.945 437.09,161.945 360.21,133.866 C283.332,105.786 220.43,82.812 220.43,82.812" id="Path"></path>
            <path d="M261.67,57.767 C261.67,57.767 315.294,79.345 380.83,105.718 C446.366,132.091 553.62,132.091 619.16,105.718 C684.7,79.345 738.32,57.767 738.32,57.767" id="Path"></path>
            <path d="M694.62,36.711 C694.62,36.711 650.83,55.995 597.308,79.565 C543.787,103.135 456.208,103.135 402.688,79.565 C349.167,55.995 305.377,36.711 305.377,36.711" id="Path"></path>
            <path d="M351.31,19.897 C351.31,19.897 384.765,35.933 425.653,55.533 C466.541,75.132 533.453,75.132 574.333,55.533 C615.221,35.933 648.676,19.897 648.676,19.897" id="Path"></path>
            <path d="M600.77,7.5771 C600.77,7.5771 578.097,19.3541 550.386,33.7481 C522.675,48.1411 477.33,48.1411 449.616,33.7481 C421.905,19.3541 399.232,7.5771 399.232,7.5771" id="Path"></path>
            <path d="M448.88,0 C448.88,0 460.382,6.451 474.441,14.335 C488.499,22.219 511.505,22.219 525.564,14.335 C539.622,6.451 551.124,0 551.124,0" id="Path"></path>
            <polyline id="Path" points="1000 497.42 750 497.42 250 497.42 0 497.42"></polyline>
            <polyline id="Path" points="0 497.42 250 497.42 750 497.42 1000 497.42"></polyline>
        </g>
    </g>
</svg>