<?xml version="1.0" encoding="UTF-8"?>
<svg width="55px" height="54px" viewBox="0 0 55 54" version="1.1" xmlns="http://www.w3.org/2000/svg" xmlns:xlink="http://www.w3.org/1999/xlink">
    <title>icon</title>
    <defs>
        <circle id="path-1" cx="23.472" cy="23.472" r="23.472"></circle>
        <rect id="path-3" x="0" y="0" width="53.464" height="53.464"></rect>
    </defs>
    <g id="UI-Wireframes" stroke="none" stroke-width="1" fill="none" fill-rule="evenodd">
        <g id="Home" transform="translate(-381.000000, -432.000000)">
            <g id="Group-15" transform="translate(137.849511, 160.392000)">
                <g id="icon" transform="translate(247.006125, 275.042125)">
                    <mask id="mask-2" fill="white">
                        <use xlink:href="#path-1"></use>
                    </mask>
                    <use id="Mask" stroke-opacity="0.208094884" stroke="#FFFFFF" stroke-width="6.846" fill="#000000" xlink:href="#path-1"></use>
                    <g mask="url(#mask-2)">
                        <g transform="translate(-3.260000, -3.260000)">
                            <g id="Rectangle-Clipped">
                                <path d="M29.8838661,0 C36.7314093,0 40.2218922,0.91114429 43.4210692,2.6220828 C46.620246,4.33302129 49.1309788,6.84375402 50.8419172,10.0429309 C52.5528556,13.2421077 53.464,16.7325907 53.464,23.5801339 L53.464,29.8838661 C53.464,36.7314093 52.5528556,40.2218922 50.8419172,43.4210692 C49.1309788,46.620246 46.620246,49.1309788 43.4210692,50.8419172 C40.2218922,52.5528556 36.7314093,53.464 29.8838661,53.464 L23.5801339,53.464 C16.7325907,53.464 13.2421077,52.5528556 10.0429309,50.8419172 C6.84375402,49.1309788 4.33302129,46.620246 2.6220828,43.4210692 C0.91114429,40.2218922 0,36.7314093 0,29.8838661 L0,23.5801339 C0,16.7325907 0.91114429,13.2421077 2.6220828,10.0429309 C4.33302129,6.84375402 6.84375402,4.33302129 10.0429309,2.6220828 C13.2421077,0.91114429 16.7325907,0 23.5801339,0 L29.8838661,0 Z M25.6342719,16.3462671 L22.417673,16.3462671 L22.1868864,19.1738271 L21.8864402,19.184693 C18.999271,19.3725023 17.3901579,21.2572896 17.1756777,21.5250295 L17.1534192,21.5533831 L19.2100321,23.1028731 L19.2247127,23.0851816 C19.3519493,22.9354284 20.2992871,21.8879716 21.9794305,21.7482113 L21.9794305,21.7482113 L21.5640178,26.8786578 L21.5640178,26.8786578 L21.5127006,26.8782893 C18.1732824,26.8782893 16.3876506,29.1644043 16.313207,29.2620481 L16.313207,29.2620481 L18.3698199,30.8115382 L18.3855802,30.7925775 C18.5225011,30.6318297 19.5443119,29.5075872 21.3531273,29.4442616 L21.3531273,29.4442616 L20.7327879,37.1177328 L23.8983296,37.1177328 L24.4119654,30.9701243 C24.6649037,31.1585766 24.9166417,31.3508889 25.1621576,31.5383986 C26.1282983,32.2764837 27.1121976,33.0283166 28.1201581,33.5598643 L28.1201581,33.5598643 L27.8297281,37.1177328 L30.9952698,37.1177328 L31.2349963,34.2738983 C34.4515037,34.0256621 36.2330618,31.6021016 36.3105807,31.4944199 L36.3105807,31.4944199 L34.2161602,29.9961733 L34.1920027,30.0273342 C34.025556,30.237686 33.0634262,31.3769503 31.4517337,31.6649952 L31.4517337,31.6649952 L31.875537,26.5749367 L31.9956528,26.5709077 C35.1138467,26.3666942 36.905055,24.1135523 37.1294248,23.8147184 L37.150793,23.7857548 L35.0563723,22.2875082 L35.0332149,22.3174045 C34.8631405,22.5326572 33.8289196,23.760282 32.0958401,23.9866427 L32.0958401,23.9866427 L32.7312121,16.3462671 L29.5146132,16.3462671 L28.9869375,22.8460042 C28.513353,22.5144132 28.0348439,22.1484115 27.5768566,21.7980394 C26.8332701,21.2304263 26.0783639,20.6539686 25.3144134,20.1861125 L25.3144134,20.1861125 L25.6342719,16.3462671 Z M25.0682763,23.1253496 C25.3828247,23.3564858 25.6973975,23.5968149 26.0023697,23.8297336 C26.9022197,24.5171756 27.8174747,25.2165437 28.7532271,25.7387486 L28.7532271,25.7387486 L28.3501932,30.6951247 C27.8108745,30.3284266 27.2603429,29.9073474 26.7366444,29.5067045 C26.0530378,28.9848767 25.359864,28.4555738 24.6588911,28.0100519 L24.6588911,28.0100519 L25.0682763,23.1253496 Z" id="path-3" fill="#FFFFFF"></path>
                            </g>
                            <g id="waves-Clipped">
                                <mask id="mask-4" fill="white">
                                    <use xlink:href="#path-3"></use>
                                </mask>
                                <g id="path-1"></g>
                            </g>
                        </g>
                    </g>
                </g>
            </g>
        </g>
    </g>
</svg>